<svg version="1.1" id="el_8jfufuZDP" xmlns="http://www.w3.org/2000/svg" xmlns:xlink="http://www.w3.org/1999/xlink" x="0px" y="0px" viewBox="0 0 628 623" style="enable-background:new 0 0 628.7 623.3;" xml:space="preserve"><style>@-webkit-keyframes kf_el_86MpAgkz8Ky_an_Fo2hkiXJUs{30%{stroke-dasharray: 865.25;}40%{stroke-dasharray: 20;}80%{stroke-dasharray: 20;}85%{stroke-dasharray: 865.25;}0%{stroke-dasharray: 865.25;}100%{stroke-dasharray: 865.25;}}@keyframes kf_el_86MpAgkz8Ky_an_Fo2hkiXJUs{30%{stroke-dasharray: 865.25;}40%{stroke-dasharray: 20;}80%{stroke-dasharray: 20;}85%{stroke-dasharray: 865.25;}0%{stroke-dasharray: 865.25;}100%{stroke-dasharray: 865.25;}}@-webkit-keyframes kf_el_86MpAgkz8Ky_an_JCeYW9T-E{30%{stroke-dashoffset: 865.25;}40%{stroke-dashoffset: 865.25;}70%{stroke-dashoffset: 0;}80%{stroke-dashoffset: 865.25;}0%{stroke-dashoffset: 865.25;}100%{stroke-dashoffset: 865.25;}}@keyframes kf_el_86MpAgkz8Ky_an_JCeYW9T-E{30%{stroke-dashoffset: 865.25;}40%{stroke-dashoffset: 865.25;}70%{stroke-dashoffset: 0;}80%{stroke-dashoffset: 865.25;}0%{stroke-dashoffset: 865.25;}100%{stroke-dashoffset: 865.25;}}@-webkit-keyframes kf_el_C0vx1S8BYwr_an_J_PNoF_Hiq{0%{stroke-dasharray: 757.31;}100%{stroke-dasharray: 757.31;}}@keyframes kf_el_C0vx1S8BYwr_an_J_PNoF_Hiq{0%{stroke-dasharray: 757.31;}100%{stroke-dasharray: 757.31;}}@-webkit-keyframes kf_el_C0vx1S8BYwr_an_j01mu2EcO{0%{stroke-dashoffset: 757.31;}23%{stroke-dashoffset: 0;}43.33%{stroke-dashoffset: 757.31;}100%{stroke-dashoffset: 757.31;}}@keyframes kf_el_C0vx1S8BYwr_an_j01mu2EcO{0%{stroke-dashoffset: 757.31;}23%{stroke-dashoffset: 0;}43.33%{stroke-dashoffset: 757.31;}100%{stroke-dashoffset: 757.31;}}@-webkit-keyframes kf_el_m0I6bZxAEcd_an_pEUZ_8gUg{40%{-webkit-transform: translate(316.6000061035156px, 284.3999938964844px) rotate(0deg) translate(-316.6000061035156px, -284.3999938964844px);transform: translate(316.6000061035156px, 284.3999938964844px) rotate(0deg) translate(-316.6000061035156px, -284.3999938964844px);}64.33%{-webkit-transform: translate(316.6000061035156px, 284.3999938964844px) rotate(90deg) translate(-316.6000061035156px, -284.3999938964844px);transform: translate(316.6000061035156px, 284.3999938964844px) rotate(90deg) translate(-316.6000061035156px, -284.3999938964844px);}95%{-webkit-transform: translate(316.6000061035156px, 284.3999938964844px) rotate(90deg) translate(-316.6000061035156px, -284.3999938964844px);transform: translate(316.6000061035156px, 284.3999938964844px) rotate(90deg) translate(-316.6000061035156px, -284.3999938964844px);}100%{-webkit-transform: translate(316.6000061035156px, 284.3999938964844px) rotate(360deg) translate(-316.6000061035156px, -284.3999938964844px);transform: translate(316.6000061035156px, 284.3999938964844px) rotate(360deg) translate(-316.6000061035156px, -284.3999938964844px);}0%{-webkit-transform: translate(316.6000061035156px, 284.3999938964844px) rotate(0deg) translate(-316.6000061035156px, -284.3999938964844px);transform: translate(316.6000061035156px, 284.3999938964844px) rotate(0deg) translate(-316.6000061035156px, -284.3999938964844px);}}@keyframes kf_el_m0I6bZxAEcd_an_pEUZ_8gUg{40%{-webkit-transform: translate(316.6000061035156px, 284.3999938964844px) rotate(0deg) translate(-316.6000061035156px, -284.3999938964844px);transform: translate(316.6000061035156px, 284.3999938964844px) rotate(0deg) translate(-316.6000061035156px, -284.3999938964844px);}64.33%{-webkit-transform: translate(316.6000061035156px, 284.3999938964844px) rotate(90deg) translate(-316.6000061035156px, -284.3999938964844px);transform: translate(316.6000061035156px, 284.3999938964844px) rotate(90deg) translate(-316.6000061035156px, -284.3999938964844px);}95%{-webkit-transform: translate(316.6000061035156px, 284.3999938964844px) rotate(90deg) translate(-316.6000061035156px, -284.3999938964844px);transform: translate(316.6000061035156px, 284.3999938964844px) rotate(90deg) translate(-316.6000061035156px, -284.3999938964844px);}100%{-webkit-transform: translate(316.6000061035156px, 284.3999938964844px) rotate(360deg) translate(-316.6000061035156px, -284.3999938964844px);transform: translate(316.6000061035156px, 284.3999938964844px) rotate(360deg) translate(-316.6000061035156px, -284.3999938964844px);}0%{-webkit-transform: translate(316.6000061035156px, 284.3999938964844px) rotate(0deg) translate(-316.6000061035156px, -284.3999938964844px);transform: translate(316.6000061035156px, 284.3999938964844px) rotate(0deg) translate(-316.6000061035156px, -284.3999938964844px);}}@-webkit-keyframes kf_el_m0I6bZxAEcd_an_ILOmayvcG{0%{opacity: 0;}25.33%{opacity: 1;}95%{opacity: 1;}100%{opacity: 0;}}@keyframes kf_el_m0I6bZxAEcd_an_ILOmayvcG{0%{opacity: 0;}25.33%{opacity: 1;}95%{opacity: 1;}100%{opacity: 0;}}@-webkit-keyframes kf_el_m0I6bZxAEcd_an_8oK3osv18{0%{-webkit-transform: translate(316.6000061035156px, 284.3999938964844px) translate(-316.6000061035156px, -284.3999938964844px) translate(0px, 260px);transform: translate(316.6000061035156px, 284.3999938964844px) translate(-316.6000061035156px, -284.3999938964844px) translate(0px, 260px);}25.33%{-webkit-transform: translate(316.6000061035156px, 284.3999938964844px) translate(-316.6000061035156px, -284.3999938964844px) translate(0px, 0px);transform: translate(316.6000061035156px, 284.3999938964844px) translate(-316.6000061035156px, -284.3999938964844px) translate(0px, 0px);}95%{-webkit-transform: translate(316.6000061035156px, 284.3999938964844px) translate(-316.6000061035156px, -284.3999938964844px) translate(0px, 0px);transform: translate(316.6000061035156px, 284.3999938964844px) translate(-316.6000061035156px, -284.3999938964844px) translate(0px, 0px);}100%{-webkit-transform: translate(316.6000061035156px, 284.3999938964844px) translate(-316.6000061035156px, -284.3999938964844px) translate(0px, 260px);transform: translate(316.6000061035156px, 284.3999938964844px) translate(-316.6000061035156px, -284.3999938964844px) translate(0px, 260px);}}@keyframes kf_el_m0I6bZxAEcd_an_8oK3osv18{0%{-webkit-transform: translate(316.6000061035156px, 284.3999938964844px) translate(-316.6000061035156px, -284.3999938964844px) translate(0px, 260px);transform: translate(316.6000061035156px, 284.3999938964844px) translate(-316.6000061035156px, -284.3999938964844px) translate(0px, 260px);}25.33%{-webkit-transform: translate(316.6000061035156px, 284.3999938964844px) translate(-316.6000061035156px, -284.3999938964844px) translate(0px, 0px);transform: translate(316.6000061035156px, 284.3999938964844px) translate(-316.6000061035156px, -284.3999938964844px) translate(0px, 0px);}95%{-webkit-transform: translate(316.6000061035156px, 284.3999938964844px) translate(-316.6000061035156px, -284.3999938964844px) translate(0px, 0px);transform: translate(316.6000061035156px, 284.3999938964844px) translate(-316.6000061035156px, -284.3999938964844px) translate(0px, 0px);}100%{-webkit-transform: translate(316.6000061035156px, 284.3999938964844px) translate(-316.6000061035156px, -284.3999938964844px) translate(0px, 260px);transform: translate(316.6000061035156px, 284.3999938964844px) translate(-316.6000061035156px, -284.3999938964844px) translate(0px, 260px);}}@-webkit-keyframes kf_el_m0I6bZxAEcd_an_dzwxvP9Uv{0%{-webkit-transform: translate(316.6000061035156px, 284.3999938964844px) scale(0, 0) translate(-316.6000061035156px, -284.3999938964844px);transform: translate(316.6000061035156px, 284.3999938964844px) scale(0, 0) translate(-316.6000061035156px, -284.3999938964844px);}25.33%{-webkit-transform: translate(316.6000061035156px, 284.3999938964844px) scale(1, 1) translate(-316.6000061035156px, -284.3999938964844px);transform: translate(316.6000061035156px, 284.3999938964844px) scale(1, 1) translate(-316.6000061035156px, -284.3999938964844px);}95%{-webkit-transform: translate(316.6000061035156px, 284.3999938964844px) scale(1, 1) translate(-316.6000061035156px, -284.3999938964844px);transform: translate(316.6000061035156px, 284.3999938964844px) scale(1, 1) translate(-316.6000061035156px, -284.3999938964844px);}100%{-webkit-transform: translate(316.6000061035156px, 284.3999938964844px) scale(0, 0) translate(-316.6000061035156px, -284.3999938964844px);transform: translate(316.6000061035156px, 284.3999938964844px) scale(0, 0) translate(-316.6000061035156px, -284.3999938964844px);}}@keyframes kf_el_m0I6bZxAEcd_an_dzwxvP9Uv{0%{-webkit-transform: translate(316.6000061035156px, 284.3999938964844px) scale(0, 0) translate(-316.6000061035156px, -284.3999938964844px);transform: translate(316.6000061035156px, 284.3999938964844px) scale(0, 0) translate(-316.6000061035156px, -284.3999938964844px);}25.33%{-webkit-transform: translate(316.6000061035156px, 284.3999938964844px) scale(1, 1) translate(-316.6000061035156px, -284.3999938964844px);transform: translate(316.6000061035156px, 284.3999938964844px) scale(1, 1) translate(-316.6000061035156px, -284.3999938964844px);}95%{-webkit-transform: translate(316.6000061035156px, 284.3999938964844px) scale(1, 1) translate(-316.6000061035156px, -284.3999938964844px);transform: translate(316.6000061035156px, 284.3999938964844px) scale(1, 1) translate(-316.6000061035156px, -284.3999938964844px);}100%{-webkit-transform: translate(316.6000061035156px, 284.3999938964844px) scale(0, 0) translate(-316.6000061035156px, -284.3999938964844px);transform: translate(316.6000061035156px, 284.3999938964844px) scale(0, 0) translate(-316.6000061035156px, -284.3999938964844px);}}@-webkit-keyframes kf_el_zUQi9lsn8x2_an_2SjF6h6PbY{0%{stroke-dasharray: 1, 5;}100%{stroke-dasharray: 1, 5;}}@keyframes kf_el_zUQi9lsn8x2_an_2SjF6h6PbY{0%{stroke-dasharray: 1, 5;}100%{stroke-dasharray: 1, 5;}}@-webkit-keyframes kf_el_zUQi9lsn8x2_an_6NjvyB0ck{0%{stroke-dashoffset: 745.71;}30%{stroke-dashoffset: -3000;}100%{stroke-dashoffset: 745.71;}}@keyframes kf_el_zUQi9lsn8x2_an_6NjvyB0ck{0%{stroke-dashoffset: 745.71;}30%{stroke-dashoffset: -3000;}100%{stroke-dashoffset: 745.71;}}@-webkit-keyframes kf_el_KGZyHvzuk2N_an_bPaKFtT8aC{0%{stroke-dasharray: 150, 50;}100%{stroke-dasharray: 150, 50;}}@keyframes kf_el_KGZyHvzuk2N_an_bPaKFtT8aC{0%{stroke-dasharray: 150, 50;}100%{stroke-dasharray: 150, 50;}}@-webkit-keyframes kf_el_KGZyHvzuk2N_an_4cxDisjkg{0%{stroke-dashoffset: 0;}30%{stroke-dashoffset: 939.96;}100%{stroke-dashoffset: 0;}}@keyframes kf_el_KGZyHvzuk2N_an_4cxDisjkg{0%{stroke-dashoffset: 0;}30%{stroke-dashoffset: 939.96;}100%{stroke-dashoffset: 0;}}@-webkit-keyframes kf_el_wvWiINwEmVV_an_RwoajsfLq7{0%{stroke-dasharray: 1269.72, 150, 0;}30%{stroke-dasharray: 1269.72, 150, 40, 50;}100%{stroke-dasharray: 1269.72, 150, 40, 50;}}@keyframes kf_el_wvWiINwEmVV_an_RwoajsfLq7{0%{stroke-dasharray: 1269.72, 150, 0;}30%{stroke-dasharray: 1269.72, 150, 40, 50;}100%{stroke-dasharray: 1269.72, 150, 40, 50;}}@-webkit-keyframes kf_el_wvWiINwEmVV_an_G24DIDYnT{0%{stroke-dashoffset: 1269.72;}30%{stroke-dashoffset: 0;}95%{stroke-dashoffset: 1269.72;}100%{stroke-dashoffset: 1269.72;}}@keyframes kf_el_wvWiINwEmVV_an_G24DIDYnT{0%{stroke-dashoffset: 1269.72;}30%{stroke-dashoffset: 0;}95%{stroke-dashoffset: 1269.72;}100%{stroke-dashoffset: 1269.72;}}#el_8jfufuZDP *{-webkit-animation-duration: 10s;animation-duration: 10s;-webkit-animation-iteration-count: 1;animation-iteration-count: 1;-webkit-animation-timing-function: cubic-bezier(0, 0, 1, 1);animation-timing-function: cubic-bezier(0, 0, 1, 1);}#el_y-3KvbIOYY{display: none;visibility: hidden;}#el_id6gPDLVZg{display: inline;overflow: visible;fill: url(#SVGID_3_);visibility: hidden;}#el_OWG953r6iN{display: inline;-webkit-clip-path: url(#SVGID_4_);clip-path: url(#SVGID_4_);fill: url(#SVGID_5_);visibility: hidden;}#el_mHGUHjWAzy{fill: rgb(116, 192, 106);}#el_Fi6f6dXppg{fill: url(#SVGID_7_);}#el_4PZJtWt2aS{fill: url(#SVGID_8_);}#el_dY7vl6Pd4X{fill: url(#SVGID_9_);}#el_rkjnuChYgS{fill: url(#SVGID_10_);}#el_pH7DXi9lPNE{fill: url(#SVGID_11_);}#el_8sPHp9v1CiW{fill: url(#SVGID_12_);}#el_rmVYe5C0HmM{fill: url(#SVGID_13_);}#el_9gnnpfzMP_h{fill: url(#SVGID_14_);}#el_SnA7KjHhwD5{fill: url(#SVGID_15_);}#el_R6kQwG732-E{fill: url(#SVGID_16_);}#el_g1POqkRSEQO{fill: #2B2B2B;}#el_wvWiINwEmVV{fill: none;stroke: #3DAE2B;stroke-width: 2;-webkit-animation-fill-mode: backwards, backwards;animation-fill-mode: backwards, backwards;stroke-dashoffset: 1269.72;-webkit-animation-name: kf_el_wvWiINwEmVV_an_G24DIDYnT, kf_el_wvWiINwEmVV_an_RwoajsfLq7;animation-name: kf_el_wvWiINwEmVV_an_G24DIDYnT, kf_el_wvWiINwEmVV_an_RwoajsfLq7;-webkit-animation-timing-function: cubic-bezier(0.42, 0, 0.58, 1), cubic-bezier(0, 0, 1, 1);animation-timing-function: cubic-bezier(0.42, 0, 0.58, 1), cubic-bezier(0, 0, 1, 1);stroke-dasharray: 1269.72, 150, 0;}#el_KGZyHvzuk2N{fill: none;stroke: url(#SVGID_17_);stroke-width: 17;-webkit-animation-fill-mode: backwards, backwards;animation-fill-mode: backwards, backwards;stroke-dashoffset: 0;-webkit-animation-name: kf_el_KGZyHvzuk2N_an_4cxDisjkg, kf_el_KGZyHvzuk2N_an_bPaKFtT8aC;animation-name: kf_el_KGZyHvzuk2N_an_4cxDisjkg, kf_el_KGZyHvzuk2N_an_bPaKFtT8aC;-webkit-animation-timing-function: cubic-bezier(0.42, 0, 0.58, 1), cubic-bezier(0, 0, 1, 1);animation-timing-function: cubic-bezier(0.42, 0, 0.58, 1), cubic-bezier(0, 0, 1, 1);stroke-dasharray: 150, 50;}#el_zUQi9lsn8x2{fill: none;stroke: url(#SVGID_18_);stroke-width: 17;-webkit-animation-fill-mode: backwards, backwards;animation-fill-mode: backwards, backwards;stroke-dashoffset: 745.71;-webkit-animation-name: kf_el_zUQi9lsn8x2_an_6NjvyB0ck, kf_el_zUQi9lsn8x2_an_2SjF6h6PbY;animation-name: kf_el_zUQi9lsn8x2_an_6NjvyB0ck, kf_el_zUQi9lsn8x2_an_2SjF6h6PbY;-webkit-animation-timing-function: cubic-bezier(0.42, 0, 0.58, 1), cubic-bezier(0, 0, 1, 1);animation-timing-function: cubic-bezier(0.42, 0, 0.58, 1), cubic-bezier(0, 0, 1, 1);stroke-dasharray: 1, 5;}#el_Tq0WtbYWBS7{fill: url(#SVGID_19_);}#el_soXAAqjr4Ul{fill: #FFDE01;}#el_BFkl4CzJWZA{fill: #FFDE01;}#el_GrkLet9M1KH{fill: #FFDE01;}#el_7UsXxnmFZuX{fill: #FFDE01;}#el_IlWO-3lEE5_{fill: #FFFFFF;}#el_VMhzDBHg1zr{fill: #FFFFFF;}#el_CAeRX6KNEk9{fill: #FFFFFF;}#el_--QKNt0U6rO{fill: #964EE2;}#el_vFcuRkNwYcY{fill: #3DAE2B;}#el_a2p_hz9fvY2{fill-rule: evenodd;clip-rule: evenodd;fill: #C2C2C2;}#el_u0Dv1H2VN9o{fill-rule: evenodd;clip-rule: evenodd;fill: #C2C2C2;}#el_JYvXbjRB242{fill-rule: evenodd;clip-rule: evenodd;fill: #C2C2C2;}#el_1Pn7IyQSYHq{-webkit-clip-path: url(#SVGID_20_);clip-path: url(#SVGID_20_);}#el_wm6rfIkyrqR{fill: #FFFFFF;}#el_yaPiSC01dQc{fill: #FFFFFF;}#el_HUGDt0Sv2Ps{fill: #FFFFFF;}#el_6YaMfS28e5z{fill: #FFFFFF;}#el_m0_KI6gS7bN{fill: #FFFFFF;}#el_E7lLeIIPUtY{fill: #FFFFFF;}#el_0dkDGo3wm4i{fill: #FFFFFF;}#el_JNbgjLhehkt{fill: #FFFFFF;}#el_cDfqYGhA83k{fill: #FFFFFF;}#el_C0vx1S8BYwr{fill: none;stroke: #964EE2;stroke-width: 2;-webkit-animation-fill-mode: backwards, backwards;animation-fill-mode: backwards, backwards;stroke-dashoffset: 757.31;-webkit-animation-name: kf_el_C0vx1S8BYwr_an_j01mu2EcO, kf_el_C0vx1S8BYwr_an_J_PNoF_Hiq;animation-name: kf_el_C0vx1S8BYwr_an_j01mu2EcO, kf_el_C0vx1S8BYwr_an_J_PNoF_Hiq;-webkit-animation-timing-function: cubic-bezier(0.42, 0, 0.58, 1), cubic-bezier(0, 0, 1, 1);animation-timing-function: cubic-bezier(0.42, 0, 0.58, 1), cubic-bezier(0, 0, 1, 1);stroke-dasharray: 757.31;}#el_86MpAgkz8Ky{fill: none;stroke: #3DAE2B;stroke-width: 2;-webkit-animation-fill-mode: backwards, backwards;animation-fill-mode: backwards, backwards;stroke-dashoffset: 865.25;-webkit-animation-name: kf_el_86MpAgkz8Ky_an_JCeYW9T-E, kf_el_86MpAgkz8Ky_an_Fo2hkiXJUs;animation-name: kf_el_86MpAgkz8Ky_an_JCeYW9T-E, kf_el_86MpAgkz8Ky_an_Fo2hkiXJUs;-webkit-animation-timing-function: cubic-bezier(0.42, 0, 0.58, 1), cubic-bezier(0, 0, 1, 1);animation-timing-function: cubic-bezier(0.42, 0, 0.58, 1), cubic-bezier(0, 0, 1, 1);stroke-dasharray: 865.25;}#el_m0I6bZxAEcd_an_dzwxvP9Uv{-webkit-animation-fill-mode: backwards;animation-fill-mode: backwards;-webkit-transform: translate(316.6000061035156px, 284.3999938964844px) scale(0, 0) translate(-316.6000061035156px, -284.3999938964844px);transform: translate(316.6000061035156px, 284.3999938964844px) scale(0, 0) translate(-316.6000061035156px, -284.3999938964844px);-webkit-animation-name: kf_el_m0I6bZxAEcd_an_dzwxvP9Uv;animation-name: kf_el_m0I6bZxAEcd_an_dzwxvP9Uv;-webkit-animation-timing-function: cubic-bezier(0.42, 0, 0.58, 1);animation-timing-function: cubic-bezier(0.42, 0, 0.58, 1);}#el_m0I6bZxAEcd_an_8oK3osv18{-webkit-animation-fill-mode: backwards;animation-fill-mode: backwards;-webkit-transform: translate(316.6000061035156px, 284.3999938964844px) translate(-316.6000061035156px, -284.3999938964844px) translate(0px, 260px);transform: translate(316.6000061035156px, 284.3999938964844px) translate(-316.6000061035156px, -284.3999938964844px) translate(0px, 260px);-webkit-animation-name: kf_el_m0I6bZxAEcd_an_8oK3osv18;animation-name: kf_el_m0I6bZxAEcd_an_8oK3osv18;-webkit-animation-timing-function: cubic-bezier(0.42, 0, 0.58, 1);animation-timing-function: cubic-bezier(0.42, 0, 0.58, 1);}#el_m0I6bZxAEcd{-webkit-animation-fill-mode: backwards;animation-fill-mode: backwards;opacity: 0;-webkit-animation-name: kf_el_m0I6bZxAEcd_an_ILOmayvcG;animation-name: kf_el_m0I6bZxAEcd_an_ILOmayvcG;-webkit-animation-timing-function: cubic-bezier(0, 0, 1, 1);animation-timing-function: cubic-bezier(0, 0, 1, 1);}#el_m0I6bZxAEcd_an_pEUZ_8gUg{-webkit-animation-fill-mode: backwards;animation-fill-mode: backwards;-webkit-transform: translate(316.6000061035156px, 284.3999938964844px) rotate(0deg) translate(-316.6000061035156px, -284.3999938964844px);transform: translate(316.6000061035156px, 284.3999938964844px) rotate(0deg) translate(-316.6000061035156px, -284.3999938964844px);-webkit-animation-name: kf_el_m0I6bZxAEcd_an_pEUZ_8gUg;animation-name: kf_el_m0I6bZxAEcd_an_pEUZ_8gUg;-webkit-animation-timing-function: cubic-bezier(0.42, 0, 0.58, 1);animation-timing-function: cubic-bezier(0.42, 0, 0.58, 1);}</style>


<g id="el_qPoMu9ocvk">
	
		<radialGradient id="SVGID_6_" cx="-1169.751" cy="-596.267" r="149.621" gradientTransform="matrix(-0.8 0 0 0.4797 -615.6603 799.2758)" gradientUnits="userSpaceOnUse">
		<stop offset="0" style="stop-color:#000000"/>
		<stop offset="0.2697" style="stop-color:#CA0000"/>
		<stop offset="0.27" style="stop-color:#CC0900"/>
		<stop offset="0.2712" style="stop-color:#D53700"/>
		<stop offset="0.2726" style="stop-color:#DE6200"/>
		<stop offset="0.2742" style="stop-color:#E68800"/>
		<stop offset="0.2758" style="stop-color:#EDA800"/>
		<stop offset="0.2776" style="stop-color:#F3C400"/>
		<stop offset="0.2797" style="stop-color:#F7DA00"/>
		<stop offset="0.2821" style="stop-color:#FBEB00"/>
		<stop offset="0.2851" style="stop-color:#FDF600"/>
		<stop offset="0.2893" style="stop-color:#FFFD00"/>
		<stop offset="0.3008" style="stop-color:#FFFF00"/>
		<stop offset="0.3133" style="stop-color:#FF0000"/>
		<stop offset="0.3161" style="stop-color:#FA0000"/>
		<stop offset="0.344" style="stop-color:#CC0000"/>
		<stop offset="0.3747" style="stop-color:#A20000"/>
		<stop offset="0.4083" style="stop-color:#7C0000"/>
		<stop offset="0.445" style="stop-color:#5C0000"/>
		<stop offset="0.4854" style="stop-color:#400000"/>
		<stop offset="0.5312" style="stop-color:#2A0000"/>
		<stop offset="0.5845" style="stop-color:#190000"/>
		<stop offset="0.6505" style="stop-color:#0E0000"/>
		<stop offset="0.7431" style="stop-color:#070000"/>
		<stop offset="1" style="stop-color:#050000"/>
	</radialGradient>
	<ellipse cx="320.1" cy="513.2" rx="119.7" ry="71.8" id="el_mHGUHjWAzy"/>
	<g id="el_yxuKn7kl1R">
		<g id="el_u7o-3hytzt">
			
				<linearGradient id="SVGID_7_" gradientUnits="userSpaceOnUse" x1="-264.828" y1="359.4659" x2="-201.4712" y2="359.4659" gradientTransform="matrix(-0.9575 0.2886 0.2886 0.9575 -7.1336 236.3449)">
				<stop offset="0" style="stop-color:#000000"/>
				<stop offset="0.1891" style="stop-color:#000103"/>
				<stop offset="0.3224" style="stop-color:#00060C"/>
				<stop offset="0.4387" style="stop-color:#000E1C"/>
				<stop offset="0.5452" style="stop-color:#001932"/>
				<stop offset="0.6451" style="stop-color:#00274E"/>
				<stop offset="0.74" style="stop-color:#003871"/>
				<stop offset="0.831" style="stop-color:#004D9B"/>
				<stop offset="0.9166" style="stop-color:#0064CA"/>
				<stop offset="1" style="stop-color:#007FFF"/>
			</linearGradient>
			<path d="M288.7,518.9c5.2,10.3,23.4,16.2,40.6,13.1c17.2-3.1,27-14,21.8-24.4c-5.2-10.3-23.3-16.2-40.6-13.1&#10;&#9;&#9;&#9;&#9;C293.2,497.6,283.5,508.5,288.7,518.9z" id="el_Fi6f6dXppg"/>
			<g id="el_X4zTow09dM">
				
					<linearGradient id="SVGID_8_" gradientUnits="userSpaceOnUse" x1="-217.718" y1="358.0645" x2="-213.5104" y2="373.96" gradientTransform="matrix(-0.9575 0.2886 0.2886 0.9575 -7.1336 236.3449)">
					<stop offset="0" style="stop-color:#000000"/>
					<stop offset="0.1891" style="stop-color:#000103"/>
					<stop offset="0.3224" style="stop-color:#00060C"/>
					<stop offset="0.4387" style="stop-color:#000E1C"/>
					<stop offset="0.5452" style="stop-color:#001932"/>
					<stop offset="0.6451" style="stop-color:#00274E"/>
					<stop offset="0.74" style="stop-color:#003871"/>
					<stop offset="0.831" style="stop-color:#004D9B"/>
					<stop offset="0.9166" style="stop-color:#0064CA"/>
					<stop offset="1" style="stop-color:#007FFF"/>
				</linearGradient>
				<path d="M294.4,525.5c1.1-7.1,10.1-9.6,19.9-9.6c-0.6,0.6-1.2,1.1-1.7,1.7c-6.5,7.2-4.6,9.1,3.7,15.1&#10;&#9;&#9;&#9;&#9;&#9;c-4-0.3-8-1-11.8-2.2c-4.2-1.4-7.8-3.2-10.5-5.4C294.1,525.2,294.3,525.3,294.4,525.5z" id="el_4PZJtWt2aS"/>
			</g>
			<g id="el_EcBt5AzvH7">
				
					<linearGradient id="SVGID_9_" gradientUnits="userSpaceOnUse" x1="-245.9229" y1="373.1947" x2="-252.9683" y2="343.8387" gradientTransform="matrix(-0.9575 0.2886 0.2886 0.9575 -7.1336 236.3449)">
					<stop offset="0" style="stop-color:#000000"/>
					<stop offset="0.1891" style="stop-color:#000103"/>
					<stop offset="0.3224" style="stop-color:#00060C"/>
					<stop offset="0.4387" style="stop-color:#000E1C"/>
					<stop offset="0.5452" style="stop-color:#001932"/>
					<stop offset="0.6451" style="stop-color:#00274E"/>
					<stop offset="0.74" style="stop-color:#003871"/>
					<stop offset="0.831" style="stop-color:#004D9B"/>
					<stop offset="0.9166" style="stop-color:#0064CA"/>
					<stop offset="1" style="stop-color:#007FFF"/>
				</linearGradient>
				<path d="M345.3,501c-1.1,7.1-8.5,20.2-19.9,23c0.6-0.6,1.2-1.1,1.7-1.7c6.5-7.2,4.6-22.6-3.7-28.5&#10;&#9;&#9;&#9;&#9;&#9;c4,0.3,8,1,11.8,2.2c4.2,1.4,7.8,3.2,10.5,5.4C345.6,501.3,345.4,501.2,345.3,501z" id="el_dY7vl6Pd4X"/>
			</g>
			<g id="el_CwMFV5E4vV">
				
					<linearGradient id="SVGID_10_" gradientUnits="userSpaceOnUse" x1="-226.7198" y1="349.426" x2="-204.8064" y2="362.3162" gradientTransform="matrix(-0.9575 0.2886 0.2886 0.9575 -7.1336 236.3449)">
					<stop offset="0" style="stop-color:#000000"/>
					<stop offset="0.1891" style="stop-color:#000103"/>
					<stop offset="0.3224" style="stop-color:#00060C"/>
					<stop offset="0.4387" style="stop-color:#000E1C"/>
					<stop offset="0.5452" style="stop-color:#001932"/>
					<stop offset="0.6451" style="stop-color:#00274E"/>
					<stop offset="0.74" style="stop-color:#003871"/>
					<stop offset="0.831" style="stop-color:#004D9B"/>
					<stop offset="0.9166" style="stop-color:#0064CA"/>
					<stop offset="1" style="stop-color:#007FFF"/>
				</linearGradient>
				<path d="M287.5,511.1c9.1-4.6,23.8-1,33.2,3.6c-1.1,0.1-2.2,0.4-3.3,0.5c-9.1,0.7-21.9,2.5-23,10.3&#10;&#9;&#9;&#9;&#9;&#9;c-2.5-1.9-4.5-4.1-5.7-6.6c-1.4-2.8-1.7-5.6-1.1-8.3C287.5,510.8,287.5,510.9,287.5,511.1z" id="el_rkjnuChYgS"/>
			</g>
			<g id="el_2fyvr1z4fZ">
				
					<linearGradient id="SVGID_11_" gradientUnits="userSpaceOnUse" x1="-234.2817" y1="378.361" x2="-264.8221" y2="359.2486" gradientTransform="matrix(-0.9575 0.2886 0.2886 0.9575 -7.1336 236.3449)">
					<stop offset="0" style="stop-color:#000000"/>
					<stop offset="0.1891" style="stop-color:#000103"/>
					<stop offset="0.3224" style="stop-color:#00060C"/>
					<stop offset="0.4387" style="stop-color:#000E1C"/>
					<stop offset="0.5452" style="stop-color:#001932"/>
					<stop offset="0.6451" style="stop-color:#00274E"/>
					<stop offset="0.74" style="stop-color:#003871"/>
					<stop offset="0.831" style="stop-color:#004D9B"/>
					<stop offset="0.9166" style="stop-color:#0064CA"/>
					<stop offset="1" style="stop-color:#007FFF"/>
				</linearGradient>
				<path d="M352.2,515.4c-9.1,4.6-21.9,12.6-33.2,9.8c1.1-0.1,2.2-0.3,3.3-0.5c13.1-2.4,21.9-16,23-23.7&#10;&#9;&#9;&#9;&#9;&#9;c2.5,1.9,4.5,4.1,5.7,6.6c1.4,2.8,1.7,5.6,1.1,8.3C352.2,515.7,352.2,515.6,352.2,515.4z" id="el_pH7DXi9lPNE"/>
			</g>
			<g id="el_Zt0jAqVzAHZ">
				
					<linearGradient id="SVGID_12_" gradientUnits="userSpaceOnUse" x1="-240.5235" y1="355.0336" x2="-203.7931" y2="344.8787" gradientTransform="matrix(-0.9575 0.2886 0.2886 0.9575 -7.1336 236.3449)">
					<stop offset="0" style="stop-color:#000000"/>
					<stop offset="0.1891" style="stop-color:#000103"/>
					<stop offset="0.3224" style="stop-color:#00060C"/>
					<stop offset="0.4387" style="stop-color:#000E1C"/>
					<stop offset="0.5452" style="stop-color:#001932"/>
					<stop offset="0.6451" style="stop-color:#00274E"/>
					<stop offset="0.74" style="stop-color:#003871"/>
					<stop offset="0.831" style="stop-color:#004D9B"/>
					<stop offset="0.9166" style="stop-color:#0064CA"/>
					<stop offset="1" style="stop-color:#007FFF"/>
				</linearGradient>
				<path d="M299.5,498c11.8,0.6,22.4,11.8,27.1,18.7c-0.9-0.4-1.9-0.7-2.9-1.1c-12.1-3.9-26.4-9.5-36.3-4.5&#10;&#9;&#9;&#9;&#9;&#9;c0.4-2.4,1.7-4.8,3.7-7.1c2.3-2.5,5.4-4.7,8.9-6.3C299.9,497.8,299.7,497.9,299.5,498z" id="el_8sPHp9v1CiW"/>
			</g>
			<g id="el_jYZZdQE3Npn">
				
					<linearGradient id="SVGID_13_" gradientUnits="userSpaceOnUse" x1="-223.714" y1="367.6899" x2="-263.0914" y2="377.3156" gradientTransform="matrix(-0.9575 0.2886 0.2886 0.9575 -7.1336 236.3449)">
					<stop offset="0" style="stop-color:#000000"/>
					<stop offset="0.1891" style="stop-color:#000103"/>
					<stop offset="0.3224" style="stop-color:#00060C"/>
					<stop offset="0.4387" style="stop-color:#000E1C"/>
					<stop offset="0.5452" style="stop-color:#001932"/>
					<stop offset="0.6451" style="stop-color:#00274E"/>
					<stop offset="0.74" style="stop-color:#003871"/>
					<stop offset="0.831" style="stop-color:#004D9B"/>
					<stop offset="0.9166" style="stop-color:#0064CA"/>
					<stop offset="1" style="stop-color:#007FFF"/>
				</linearGradient>
				<path d="M340.2,528.5c-11.8-0.6-22.4,1.6-27.1-5.2c0.9,0.4,1.9,0.7,2.9,1.1c12.1,3.9,26.4-4,36.3-8.9&#10;&#9;&#9;&#9;&#9;&#9;c-0.4,2.4-1.6,4.8-3.7,7.1c-2.3,2.5-5.4,4.7-8.9,6.3C339.8,528.7,340,528.6,340.2,528.5z" id="el_rmVYe5C0HmM"/>
			</g>
			<g id="el_ONlMFoI1SbR">
				
					<linearGradient id="SVGID_14_" gradientUnits="userSpaceOnUse" x1="-244.7057" y1="365.4201" x2="-226.8764" y2="334.2188" gradientTransform="matrix(-0.9575 0.2886 0.2886 0.9575 -7.1336 236.3449)">
					<stop offset="0" style="stop-color:#000000"/>
					<stop offset="0.1891" style="stop-color:#000103"/>
					<stop offset="0.3224" style="stop-color:#00060C"/>
					<stop offset="0.4387" style="stop-color:#000E1C"/>
					<stop offset="0.5452" style="stop-color:#001932"/>
					<stop offset="0.6451" style="stop-color:#00274E"/>
					<stop offset="0.74" style="stop-color:#003871"/>
					<stop offset="0.831" style="stop-color:#004D9B"/>
					<stop offset="0.9166" style="stop-color:#0064CA"/>
					<stop offset="1" style="stop-color:#007FFF"/>
				</linearGradient>
				<path d="M323.5,493.8c7.6,5.5,9.8,19.9,5.1,26.7c-0.2-0.7-0.5-1.3-0.8-2c-4-7.9-15.4-19.9-28.3-20.6&#10;&#9;&#9;&#9;&#9;&#9;c3.2-1.5,6.8-2.7,10.9-3.4c4.6-0.8,9.3-1,13.8-0.7C324,493.8,323.7,493.8,323.5,493.8z" id="el_9gnnpfzMP_h"/>
			</g>
			<g id="el_Z5W2U9nwjf4">
				
					<linearGradient id="SVGID_15_" gradientUnits="userSpaceOnUse" x1="-225.4437" y1="361.3274" x2="-239.9761" y2="385.497" gradientTransform="matrix(-0.9575 0.2886 0.2886 0.9575 -7.1336 236.3449)">
					<stop offset="0" style="stop-color:#000000"/>
					<stop offset="0.1891" style="stop-color:#000103"/>
					<stop offset="0.3224" style="stop-color:#00060C"/>
					<stop offset="0.4387" style="stop-color:#000E1C"/>
					<stop offset="0.5452" style="stop-color:#001932"/>
					<stop offset="0.6451" style="stop-color:#00274E"/>
					<stop offset="0.74" style="stop-color:#003871"/>
					<stop offset="0.831" style="stop-color:#004D9B"/>
					<stop offset="0.9166" style="stop-color:#0064CA"/>
					<stop offset="1" style="stop-color:#007FFF"/>
				</linearGradient>
				<path d="M316.2,532.7c-7.6-5.5-9.8-6.4-5.1-13.2c0.2,0.7,0.5,1.3,0.8,2c4,7.9,15.4,6.4,28.3,7.1&#10;&#9;&#9;&#9;&#9;&#9;c-3.2,1.5-6.8,2.7-10.9,3.4c-4.6,0.8-9.3,1-13.8,0.7C315.7,532.7,316,532.7,316.2,532.7z" id="el_SnA7KjHhwD5"/>
			</g>
		</g>
		
			<linearGradient id="SVGID_16_" gradientUnits="userSpaceOnUse" x1="-403.2204" y1="-178.4773" x2="-384.2664" y2="-178.4773" gradientTransform="matrix(-1 0 0 0.5996 -73.6025 626.4565)">
			<stop offset="0" style="stop-color:#00FFFF"/>
			<stop offset="1.990041e-02" style="stop-color:#00EAF1"/>
			<stop offset="9.543676e-02" style="stop-color:#009DC0"/>
			<stop offset="0.1579" style="stop-color:#00669D"/>
			<stop offset="0.2041" style="stop-color:#004386"/>
			<stop offset="0.229" style="stop-color:#00367E"/>
			<stop offset="0.3228" style="stop-color:#003B81"/>
			<stop offset="0.4318" style="stop-color:#00498A"/>
			<stop offset="0.5485" style="stop-color:#006099"/>
			<stop offset="0.6707" style="stop-color:#0081AE"/>
			<stop offset="0.7971" style="stop-color:#00ABC9"/>
			<stop offset="0.9251" style="stop-color:#00DEEA"/>
			<stop offset="1" style="stop-color:#00FFFF"/>
		</linearGradient>
		<path d="M310.7,519.4c0,3.1,4.2,5.7,9.5,5.7c5.2,0,9.5-2.5,9.5-5.7c0-3.1-4.2-5.7-9.5-5.7&#10;&#9;&#9;&#9;C314.9,513.8,310.7,516.3,310.7,519.4z" id="el_R6kQwG732-E"/>
	</g>
</g>
<g id="el_Y-1s_x6Rvk7">
	<g id="el_YbAoZTou1Hi">
		<path d="M346.6,562.3c43.2-7.2,73.6-31.7,73.8-59.5c0.1-10.3-4-20.6-11.9-29.6c-17.3-20-50.8-32.5-87.3-32.6&#10;&#9;&#9;&#9;c-8.9,0-17.8,0.7-26.3,2.1c-43.2,7.2-73.6,31.7-73.8,59.5c-0.1,16.5,10.1,32.1,28.9,43.8c18.7,11.7,43.7,18.3,70.3,18.3&#10;&#9;&#9;&#9;C329.2,564.4,338.1,563.7,346.6,562.3z M300.8,456.2c6.6-1.1,13.5-1.7,20.4-1.6c28.3,0.1,54.2,9.7,67.6,25.2&#10;&#9;&#9;&#9;c6.1,7,9.2,14.9,9.2,22.9c-0.2,21.6-23.7,40.5-57.1,46.1c-6.6,1.1-13.5,1.6-20.4,1.6c-20.6-0.1-39.9-5.1-54.5-14.2&#10;&#9;&#9;&#9;c-14.5-9.1-22.5-21.2-22.4-34C243.8,480.7,267.3,461.8,300.8,456.2z" id="el_g1POqkRSEQO"/>
	</g>
</g>
<path d="M566.3,442.7c0,20-6.7,39.5-19.3,57.3c-12.5,17.8-30.7,33.9-53.2,47.5c-45.1,27.3-107.5,44-176.6,44&#10;&#9;s-131.5-16.9-176.6-44c-22.6-13.6-40.8-29.8-53.2-47.5c-12.6-17.8-19.3-37.2-19.3-57.3s6.7-39.5,19.3-57.3&#10;&#9;c12.5-17.8,30.7-33.9,53.2-47.5c45.1-27.1,107.5-44,176.6-44s131.5,16.9,176.6,44c22.6,13.6,40.8,29.8,53.2,47.5&#10;&#9;C559.6,403.2,566.3,422.6,566.3,442.7z" id="el_wvWiINwEmVV"/>
<linearGradient id="SVGID_17_" gradientUnits="userSpaceOnUse" x1="124.3326" y1="454.6767" x2="509.979" y2="454.6767">
	<stop offset="0" style="stop-color:#00FFFF"/>
	<stop offset="5.438852e-03" style="stop-color:#00EDF3"/>
	<stop offset="2.121820e-02" style="stop-color:#00C0D4"/>
	<stop offset="3.760714e-02" style="stop-color:#0098BA"/>
	<stop offset="5.438539e-02" style="stop-color:#0078A4"/>
	<stop offset="7.168569e-02" style="stop-color:#006093"/>
	<stop offset="8.972542e-02" style="stop-color:#004E87"/>
	<stop offset="0.109" style="stop-color:#004380"/>
	<stop offset="0.1315" style="stop-color:#00407E"/>
	<stop offset="0.1982" style="stop-color:#003E7B"/>
	<stop offset="0.2464" style="stop-color:#003772"/>
	<stop offset="0.2888" style="stop-color:#002C62"/>
	<stop offset="0.3278" style="stop-color:#001C4C"/>
	<stop offset="0.3642" style="stop-color:#00082F"/>
	<stop offset="0.3677" style="stop-color:#00062C"/>
	<stop offset="0.4494" style="stop-color:#00113B"/>
	<stop offset="0.6071" style="stop-color:#002D64"/>
	<stop offset="0.6988" style="stop-color:#00407E"/>
	<stop offset="0.7605" style="stop-color:#004380"/>
	<stop offset="0.8052" style="stop-color:#004C86"/>
	<stop offset="0.8444" style="stop-color:#005C91"/>
	<stop offset="0.8806" style="stop-color:#0072A0"/>
	<stop offset="0.9146" style="stop-color:#008FB4"/>
	<stop offset="0.9471" style="stop-color:#00B3CB"/>
	<stop offset="0.9777" style="stop-color:#00DCE7"/>
	<stop offset="1" style="stop-color:#00FFFF"/>
</linearGradient>
<path d="M501.5,454.7c0,14.8-4.9,29.2-14.3,42.4c-9.2,13.2-22.7,25.1-39.4,35.2c-33.4,20.2-79.6,32.6-130.7,32.6&#10;&#9;s-97.3-12.5-130.7-32.6c-16.7-10.1-30.2-22-39.4-35.2c-9.3-13.2-14.3-27.5-14.3-42.4c0-14.8,4.9-29.2,14.3-42.4&#10;&#9;c9.2-13.2,22.7-25.1,39.4-35.2c33.4-20,79.6-32.6,130.7-32.6s97.3,12.5,130.7,32.6c16.7,10.1,30.2,22,39.4,35.2&#10;&#9;C496.5,425.5,501.5,439.8,501.5,454.7z" id="el_KGZyHvzuk2N"/>
<linearGradient id="SVGID_18_" gradientUnits="userSpaceOnUse" x1="158.7646" y1="446.6875" x2="475.547" y2="446.6875">
	<stop offset="0" style="stop-color:#00CC00"/>
	<stop offset="0.2414" style="stop-color:#008E00"/>
	<stop offset="0.5034" style="stop-color:#005100"/>
	<stop offset="0.7264" style="stop-color:#002500"/>
	<stop offset="0.8989" style="stop-color:#000A00"/>
	<stop offset="1" style="stop-color:#000000"/>
</linearGradient>
<path d="M467,446.7c0,11.1-4,21.9-11.6,31.8c-7.5,9.9-18.5,18.8-32,26.4c-27.1,15.2-64.7,24.5-106.3,24.5&#10;&#9;S238,520,210.9,504.9c-13.6-7.6-24.5-16.5-32-26.4c-7.6-9.9-11.6-20.7-11.6-31.8c0-11.1,4-21.9,11.6-31.8c7.5-9.9,18.5-18.8,32-26.4&#10;&#9;C238,373.4,275.6,364,317.2,364s79.1,9.4,106.3,24.5c13.6,7.6,24.5,16.5,32,26.4C463,424.7,467,435.5,467,446.7z" id="el_zUQi9lsn8x2"/>
<g id="el_m0I6bZxAEcd_an_8oK3osv18" data-animator-group="true" data-animator-type="0"><g id="el_m0I6bZxAEcd_an_pEUZ_8gUg" data-animator-group="true" data-animator-type="1"><g id="el_m0I6bZxAEcd_an_dzwxvP9Uv" data-animator-group="true" data-animator-type="2"><g id="el_m0I6bZxAEcd">
	
		<linearGradient id="SVGID_19_" gradientUnits="userSpaceOnUse" x1="-2705.4387" y1="-1915.0927" x2="-2320.4387" y2="-1915.0927" gradientTransform="matrix(6.123234e-17 -1 -1 -6.123234e-17 -1598.5404 -2228.5403)">
		<stop offset="0" style="stop-color:#3DAE2B"/>
		<stop offset="1" style="stop-color:#048172"/>
	</linearGradient>
	<path d="M194.6,466.9v-365c0-5.5,4.5-10,10-10h224c5.5,0,10,4.5,10,10v365c0,5.5-4.5,10-10,10h-224&#10;&#9;&#9;C199.1,476.9,194.6,472.4,194.6,466.9z" id="el_Tq0WtbYWBS7"/>
	<g id="el_VeaLK92FFf0">
		<path d="M299,440.9v-36c0-2.1,1.7-3.8,3.9-3.8h25.3c2.1,0,3.9,1.7,3.9,3.8v36c0,2.1-1.7,3.9-3.9,3.9h-25.3&#10;&#9;&#9;&#9;C300.7,444.8,299,443,299,440.9z" id="el_soXAAqjr4Ul"/>
		<path d="M328.2,445h-25.3c-2.2,0-4-1.8-4-4.1v-36c0-2.2,1.8-4,4-4h25.3c2.2,0,4.1,1.8,4.1,4v36C332.3,443.1,330.4,445,328.2,445z&#10;&#9;&#9;&#9; M302.9,401.3c-2.1,0-3.8,1.6-3.8,3.6v36c0,2.1,1.7,3.8,3.8,3.8h25.3c2.1,0,3.8-1.7,3.8-3.8v-36c0-2-1.7-3.6-3.8-3.6H302.9z" id="el_ufRY4LiERBA"/>
	</g>
	<g id="el_5R5lUydvgnj">
		<path d="M315.5,416.5c4.6,0,8.7,0.7,11.7,1.9c1.5,0.6,2.7,1.3,3.5,2c0.8,0.8,1.3,1.6,1.3,2.4s-0.4,1.7-1.3,2.4&#10;&#9;&#9;&#9;c-0.8,0.8-2,1.5-3.5,2c-3,1.2-7.1,1.9-11.7,1.9s-8.7-0.7-11.7-1.9c-1.5-0.6-2.7-1.3-3.5-2c-0.8-0.8-1.3-1.6-1.3-2.4&#10;&#9;&#9;&#9;s0.4-1.7,1.3-2.4c0.8-0.8,2-1.5,3.5-2C306.8,417.3,310.9,416.5,315.5,416.5z" id="el_BFkl4CzJWZA"/>
		<path d="M315.5,429.3c-4.5,0-8.7-0.7-11.8-1.9c-1.5-0.6-2.7-1.3-3.5-2c-0.9-0.9-1.4-1.7-1.4-2.5c0-0.9,0.5-1.8,1.4-2.5&#10;&#9;&#9;&#9;c0.8-0.8,2.1-1.5,3.5-2c3.4-1.2,7.5-1.9,11.7-1.9c4.5,0,8.7,0.7,11.8,1.9c1.5,0.6,2.7,1.3,3.5,2c0.9,0.9,1.4,1.7,1.4,2.5&#10;&#9;&#9;&#9;c0,0.9-0.5,1.8-1.4,2.5c-0.8,0.8-2.1,1.5-3.5,2C324.2,428.6,320,429.3,315.5,429.3z M315.5,416.7c-4.2,0-8.3,0.7-11.6,1.9&#10;&#9;&#9;&#9;c-1.5,0.5-2.6,1.2-3.4,2c-0.8,0.6-1.3,1.5-1.3,2.3c0,0.7,0.4,1.4,1.3,2.3c0.8,0.7,2,1.4,3.4,2c3,1.2,7.2,1.9,11.6,1.9&#10;&#9;&#9;&#9;s8.6-0.7,11.6-1.9c1.5-0.5,2.6-1.2,3.4-2c0.8-0.6,1.3-1.5,1.3-2.3c0-0.7-0.4-1.4-1.3-2.3c-0.8-0.7-2-1.4-3.4-2&#10;&#9;&#9;&#9;C324.1,417.3,320,416.7,315.5,416.7z" id="el_EI8WiIEUVyP"/>
	</g>
	<g id="el_KFCQc7zZrAw">
		<path d="M321.2,417.2c-3.9,1.6-8.3,1.5-12.2-0.3v-15.8h13v15.8L321.2,417.2z" id="el_GrkLet9M1KH"/>
		<path d="M315.5,418.5c-2.2,0-4.5-0.5-6.5-1.4h-0.1v-16h13.3v16.1l-0.9,0.3C319.4,418.1,317.4,418.5,315.5,418.5z M309.1,416.8&#10;&#9;&#9;&#9;c3.8,1.7,8.2,1.8,12,0.3l0.7-0.3v-15.5h-12.7V416.8z" id="el_6mK8u_8kj50"/>
	</g>
	<g id="el_TKU0SC6gcgO">
		<path d="M321.2,428.7c-3.9-1.6-8.3-1.5-12.2,0.3v15.8h13V429L321.2,428.7z" id="el_7UsXxnmFZuX"/>
		<path d="M322.1,445h-13.3v-16h0.1c3.9-1.8,8.4-1.9,12.3-0.3l0.9,0.3V445z M309.1,444.7h12.7v-15.5l-0.7-0.3&#10;&#9;&#9;&#9;c-3.8-1.6-8.2-1.5-12,0.3V444.7z" id="el_BmwC8szAyQv"/>
	</g>
	<g id="el_CNpMEIhBpA5">
		<path d="M358.8,438.8c0-0.3,0.1-0.5,0.3-0.6c0.2-0.2,0.4-0.2,0.7-0.2h14.3c0.3,0,0.6,0.1,0.7,0.3&#10;&#9;&#9;&#9;c0.2,0.2,0.3,0.4,0.3,0.7c0,0.7-0.3,1-1,1h-12.2l1.9,2.1c0.2,0.2,0.3,0.5,0.3,0.7s-0.1,0.4-0.3,0.6c-0.2,0.2-0.4,0.3-0.6,0.3&#10;&#9;&#9;&#9;c-0.3,0-0.5-0.1-0.7-0.4l-3.2-3.2c-0.2-0.2-0.3-0.4-0.4-0.6C358.9,439.3,358.8,439.1,358.8,438.8z M375.1,431.3&#10;&#9;&#9;&#9;c0,0.3-0.1,0.6-0.2,0.8c-0.2,0.2-0.4,0.3-0.8,0.3c-1.3,0-2.4-0.3-3.3-0.8s-1.6-1.1-2-1.8c-0.5-0.6-1-1.5-1.7-2.6&#10;&#9;&#9;&#9;c-0.7-1.2-1.1-2-1.4-2.4c-0.3-0.5-0.7-0.9-1-1.1c-0.4-0.3-0.8-0.4-1.4-0.4s-1.1,0.1-1.5,0.2s-0.6,0.4-0.7,0.7&#10;&#9;&#9;&#9;c-0.1,0.3-0.2,0.8-0.2,1.5v2.6c0,0.8,0.1,1.3,0.3,1.7s0.6,0.6,1.1,0.7c0.3,0.1,0.6,0.2,0.7,0.3s0.2,0.4,0.2,0.7&#10;&#9;&#9;&#9;c0,0.3-0.1,0.6-0.3,0.8c-0.2,0.2-0.5,0.2-0.8,0.2c-1.1-0.2-2-0.6-2.5-1.3c-0.6-0.7-0.8-1.7-0.8-3v-2.6c0-1.5,0.4-2.6,1.1-3.3&#10;&#9;&#9;&#9;c0.7-0.7,1.8-1.1,3.3-1.1c0.9,0,1.7,0.2,2.3,0.7c0.6,0.4,1.2,1,1.6,1.6s1,1.6,1.7,2.8c0.5,0.9,1,1.6,1.3,2.1&#10;&#9;&#9;&#9;c0.3,0.4,0.7,0.9,1.2,1.2c0.5,0.4,1.1,0.6,1.8,0.7v-7.9c0-0.3,0.1-0.6,0.3-0.7c0.2-0.2,0.4-0.3,0.7-0.3s0.6,0.1,0.7,0.3&#10;&#9;&#9;&#9;c0.2,0.2,0.3,0.4,0.3,0.7L375.1,431.3L375.1,431.3z M375.1,412.2c0,1.4-0.3,2.5-0.9,3.3s-1.5,1.2-2.7,1.4c-0.3,0-0.6,0-0.8-0.2&#10;&#9;&#9;&#9;c-0.2-0.2-0.3-0.4-0.3-0.8c0-0.6,0.3-1,1-1c0.6-0.1,1.1-0.4,1.3-0.7c0.2-0.4,0.3-1,0.3-1.9v-2.7c0-0.7-0.1-1.2-0.2-1.6&#10;&#9;&#9;&#9;c-0.2-0.4-0.4-0.7-0.8-0.8c-0.4-0.2-0.9-0.2-1.6-0.2s-1.2,0.1-1.6,0.2c-0.4,0.2-0.7,0.4-0.8,0.8c-0.2,0.4-0.2,0.9-0.2,1.6v1.8&#10;&#9;&#9;&#9;c0,0.7-0.3,1-1,1c-0.3,0-0.6-0.1-0.7-0.3s-0.3-0.4-0.3-0.7v-2.8c0-0.5-0.2-0.8-0.6-1s-1.1-0.3-1.9-0.3c-0.6,0-1.1,0.1-1.5,0.2&#10;&#9;&#9;&#9;s-0.6,0.4-0.7,0.7c-0.1,0.3-0.2,0.8-0.2,1.5v2.3c0,0.8,0.1,1.3,0.3,1.7c0.2,0.4,0.6,0.6,1.1,0.7c0.7,0.1,1,0.4,1,1.1&#10;&#9;&#9;&#9;c0,0.3-0.1,0.6-0.3,0.8c-0.2,0.2-0.5,0.2-0.8,0.2c-2.2-0.3-3.4-1.8-3.4-4.4v-2.3c0-1.5,0.4-2.6,1.1-3.3c0.7-0.7,1.8-1.1,3.3-1.1&#10;&#9;&#9;&#9;s2.5,0.4,3.1,1.2c0.7-1.1,2-1.6,4-1.6c1.6,0,2.8,0.4,3.5,1.2c0.8,0.8,1.1,1.9,1.1,3.5v2.5L375.1,412.2L375.1,412.2z M369.7,387.9&#10;&#9;&#9;&#9;c0-0.3,0.1-0.6,0.3-0.7c0.2-0.2,0.4-0.3,0.7-0.3c0.3,0,0.6,0.1,0.7,0.3s0.3,0.4,0.3,0.7v1.4h2.4c0.7,0,1,0.3,1,1&#10;&#9;&#9;&#9;c0,0.3-0.1,0.6-0.3,0.7c-0.2,0.2-0.4,0.3-0.7,0.3h-2.4v7.4c0,0.3-0.1,0.6-0.3,0.7s-0.4,0.3-0.7,0.3c-0.3,0-0.7-0.1-1.1-0.4&#10;&#9;&#9;&#9;l-10.2-7.5c-0.3-0.2-0.4-0.4-0.5-0.6s-0.1-0.5-0.1-0.8c0-0.7,0.3-1.1,1-1.1h9.8v-1.4H369.7z M369.7,397.2v-5.9h-8L369.7,397.2z&#10;&#9;&#9;&#9; M375.1,358.2c0,1.4-0.3,2.5-0.9,3.3s-1.5,1.2-2.7,1.4c-0.3,0-0.6,0-0.8-0.2c-0.2-0.2-0.3-0.4-0.3-0.8c0-0.6,0.3-1,1-1&#10;&#9;&#9;&#9;c0.6-0.1,1.1-0.4,1.3-0.7c0.2-0.4,0.4-1,0.4-1.9v-2.5c0-0.7-0.1-1.2-0.2-1.6c-0.2-0.4-0.4-0.7-0.8-0.8s-0.9-0.2-1.6-0.2h-1.7&#10;&#9;&#9;&#9;c-0.7,0-1.2,0.1-1.6,0.2c-0.4,0.2-0.7,0.4-0.8,0.8c-0.2,0.4-0.2,0.9-0.2,1.6v1.8c0,1.2,0.1,2,0.4,2.6c0.1,0.2,0.2,0.3,0.3,0.5&#10;&#9;&#9;&#9;c0.1,0.2,0.1,0.3,0.1,0.5c0,0.1,0,0.2-0.1,0.4l-0.1,0.2c-0.2,0.6-0.5,0.8-1.1,0.8h-5.8c-0.3,0-0.6-0.1-0.7-0.3&#10;&#9;&#9;&#9;c-0.2-0.2-0.3-0.4-0.3-0.7v-9.4c0-0.3,0.1-0.6,0.3-0.7s0.4-0.3,0.7-0.3c0.3,0,0.6,0.1,0.7,0.3s0.3,0.4,0.3,0.7v8.4h3.7&#10;&#9;&#9;&#9;c-0.3-0.8-0.4-1.8-0.4-3v-1.8c0-1.6,0.4-2.8,1.2-3.5c0.8-0.8,1.9-1.2,3.5-1.2h1.7c1.6,0,2.8,0.4,3.5,1.2c0.8,0.8,1.2,1.9,1.2,3.5&#10;&#9;&#9;&#9;v2.4L375.1,358.2L375.1,358.2z M375.1,340.2c0,1.6-0.4,2.8-1.1,3.6c-0.8,0.8-1.9,1.1-3.5,1.1h-7.2c-1.5,0-2.6-0.4-3.3-1.1&#10;&#9;&#9;&#9;c-0.7-0.7-1.1-1.9-1.1-3.4v-3c0-2.6,1.1-4.1,3.4-4.4c0.3,0,0.6,0,0.8,0.2c0.2,0.2,0.3,0.4,0.3,0.8c0,0.6-0.3,1-1,1.1&#10;&#9;&#9;&#9;c-0.5,0.1-0.9,0.3-1.1,0.7c-0.2,0.4-0.3,0.9-0.3,1.7v3c0,0.6,0.1,1.1,0.2,1.5c0.1,0.3,0.4,0.6,0.7,0.7c0.3,0.1,0.8,0.2,1.5,0.2h2&#10;&#9;&#9;&#9;c-0.8-0.6-1.1-1.5-1.1-2.7v-2.5c0-1.6,0.4-2.8,1.2-3.5c0.8-0.8,1.9-1.2,3.5-1.2h1.6c1.6,0,2.8,0.4,3.6,1.2&#10;&#9;&#9;&#9;c0.8,0.8,1.1,1.9,1.1,3.5v2.5L375.1,340.2L375.1,340.2z M373.1,337.7c0-0.7-0.1-1.2-0.2-1.6c-0.2-0.4-0.4-0.7-0.8-0.8&#10;&#9;&#9;&#9;c-0.4-0.2-0.9-0.2-1.6-0.2h-1.6c-0.7,0-1.2,0.1-1.6,0.2c-0.4,0.2-0.7,0.4-0.8,0.8s-0.2,0.9-0.2,1.6v2.5c0,0.7,0.1,1.2,0.2,1.6&#10;&#9;&#9;&#9;c0.2,0.4,0.4,0.6,0.8,0.8c0.4,0.2,0.9,0.2,1.6,0.2h1.7c0.7,0,1.2-0.1,1.6-0.2c0.4-0.2,0.6-0.4,0.8-0.8c0.2-0.4,0.2-0.9,0.2-1.6&#10;&#9;&#9;&#9;v-2.5H373.1z M375.1,324.3c0,0.3-0.1,0.6-0.3,0.7c-0.2,0.2-0.4,0.3-0.8,0.2c-1.6,0-3-0.2-4-0.4c-1-0.2-1.8-0.6-2.5-1.1&#10;&#9;&#9;&#9;s-1.3-1.2-2-2.1c-0.6-0.7-1.2-1.3-2-1.7c-0.8-0.4-1.7-0.6-2.8-0.6v7.6c0,0.3-0.1,0.6-0.3,0.7s-0.4,0.3-0.7,0.3&#10;&#9;&#9;&#9;c-0.3,0-0.6-0.1-0.7-0.3s-0.3-0.4-0.3-0.7v-8.6c0-0.3,0.1-0.6,0.3-0.7s0.4-0.3,0.7-0.3c1.7,0,3.2,0.3,4.3,0.8&#10;&#9;&#9;&#9;c1.2,0.5,2.2,1.3,3,2.4c0.5,0.7,1,1.3,1.6,1.7c0.5,0.4,1.2,0.6,2,0.8c0.8,0.2,1.9,0.3,3.3,0.3&#10;&#9;&#9;&#9;C374.7,323.3,375.1,323.7,375.1,324.3z M366.6,302.2c0.8-1.3,2-2,3.8-2c1.6,0,2.8,0.4,3.5,1.2c0.8,0.8,1.1,1.9,1.1,3.5v2.7&#10;&#9;&#9;&#9;c0,1.6-0.4,2.8-1.1,3.6c-0.8,0.8-1.9,1.1-3.5,1.1c-1.8,0-3.1-0.7-3.8-2.1c-0.8,1.1-1.9,1.6-3.4,1.6s-2.6-0.4-3.3-1.1&#10;&#9;&#9;&#9;c-0.7-0.7-1.1-1.9-1.1-3.4V305c0-1.5,0.4-2.6,1.1-3.3c0.7-0.7,1.8-1.1,3.3-1.1C364.7,300.5,365.9,301.1,366.6,302.2z M360.8,307.3&#10;&#9;&#9;&#9;c0,0.6,0.1,1.1,0.2,1.5c0.1,0.3,0.4,0.6,0.7,0.7s0.8,0.2,1.4,0.2c1,0,1.7-0.2,2-0.5c0.4-0.3,0.6-0.8,0.6-1.6v-2.7&#10;&#9;&#9;&#9;c0-0.7-0.1-1.2-0.3-1.5c-0.2-0.4-0.5-0.6-0.8-0.7c-0.4-0.1-0.9-0.2-1.5-0.2s-1.1,0.1-1.4,0.2s-0.6,0.4-0.7,0.7&#10;&#9;&#9;&#9;c-0.1,0.3-0.2,0.8-0.2,1.5L360.8,307.3L360.8,307.3z M373.1,304.8c0-0.7-0.1-1.2-0.2-1.6c-0.2-0.4-0.4-0.7-0.8-0.8&#10;&#9;&#9;&#9;c-0.4-0.2-0.9-0.2-1.6-0.2s-1.2,0.1-1.6,0.2c-0.4,0.2-0.7,0.4-0.8,0.8c-0.2,0.4-0.2,0.9-0.2,1.6v2.7c0,0.7,0.1,1.2,0.2,1.6&#10;&#9;&#9;&#9;c0.2,0.4,0.4,0.6,0.8,0.8c0.4,0.2,0.9,0.2,1.6,0.2s1.2-0.1,1.6-0.2c0.4-0.2,0.6-0.4,0.8-0.8c0.2-0.4,0.2-0.9,0.2-1.6V304.8z&#10;&#9;&#9;&#9; M358.8,267.9c0-1.6,0.4-2.8,1.2-3.5c0.8-0.8,1.9-1.2,3.5-1.2h7.2c1.5,0,2.6,0.4,3.4,1.1c0.7,0.7,1.1,1.8,1.1,3.3v3&#10;&#9;&#9;&#9;c0,2.6-1.1,4.1-3.4,4.4c-0.3,0-0.6,0-0.8-0.2c-0.2-0.2-0.3-0.4-0.3-0.8c0-0.6,0.3-1,1-1.1c0.5-0.1,0.9-0.3,1.1-0.7&#10;&#9;&#9;&#9;c0.2-0.4,0.3-0.9,0.3-1.7v-3c0-0.6-0.1-1.1-0.2-1.5s-0.4-0.6-0.7-0.7c-0.4-0.1-0.8-0.2-1.5-0.2h-2c0.8,0.6,1.1,1.5,1.1,2.7v2.5&#10;&#9;&#9;&#9;c0,1.6-0.4,2.8-1.2,3.5c-0.8,0.8-1.9,1.2-3.5,1.2h-1.6c-1.6,0-2.8-0.4-3.5-1.2c-0.8-0.8-1.2-1.9-1.2-3.5V267.9z M360.8,270.4&#10;&#9;&#9;&#9;c0,0.7,0.1,1.2,0.2,1.6c0.2,0.4,0.4,0.6,0.8,0.8c0.4,0.2,0.9,0.2,1.6,0.2h1.6c0.7,0,1.2-0.1,1.6-0.2c0.4-0.2,0.6-0.4,0.8-0.8&#10;&#9;&#9;&#9;c0.2-0.4,0.2-0.9,0.2-1.6v-2.5c0-0.7-0.1-1.2-0.2-1.6c-0.2-0.4-0.4-0.7-0.8-0.8c-0.4-0.2-0.9-0.2-1.6-0.2h-1.7&#10;&#9;&#9;&#9;c-0.7,0-1.2,0.1-1.6,0.2c-0.4,0.2-0.7,0.4-0.8,0.8c-0.2,0.4-0.2,0.9-0.2,1.6v2.5H360.8z M375.1,251.7c0,1.8-0.4,3.2-1.3,4.1&#10;&#9;&#9;&#9;s-2.2,1.3-4.1,1.3h-5.5c-1.9,0-3.2-0.4-4.1-1.3s-1.3-2.2-1.3-4.1v-1.4c0-1.8,0.4-3.2,1.3-4.1s2.2-1.3,4.1-1.3h5.5&#10;&#9;&#9;&#9;c1.8,0,3.2,0.4,4.1,1.3c0.9,0.9,1.3,2.2,1.3,4.1V251.7z M373.1,250.3c0-0.9-0.1-1.5-0.3-2c-0.2-0.5-0.6-0.8-1-1&#10;&#9;&#9;&#9;c-0.5-0.2-1.2-0.3-2-0.3h-5.5c-0.9,0-1.6,0.1-2,0.3c-0.5,0.2-0.8,0.6-1,1c-0.2,0.5-0.3,1.1-0.3,2v1.4c0,0.9,0.1,1.5,0.3,2&#10;&#9;&#9;&#9;c0.2,0.5,0.5,0.8,1,1s1.2,0.3,2,0.3h5.5c0.9,0,1.5-0.1,2-0.3s0.8-0.6,1-1c0.2-0.5,0.3-1.2,0.3-2V250.3z M368.1,251.4&#10;&#9;&#9;&#9;c0,0.3-0.1,0.5-0.2,0.7c-0.2,0.2-0.4,0.2-0.7,0.2h-0.6c-0.3,0-0.5-0.1-0.7-0.2c-0.2-0.2-0.2-0.4-0.2-0.7v-0.6&#10;&#9;&#9;&#9;c0-0.6,0.3-0.9,0.9-0.9h0.6c0.3,0,0.5,0.1,0.7,0.2s0.2,0.4,0.2,0.7V251.4L368.1,251.4z M358.8,235c0-0.3,0.1-0.5,0.3-0.6&#10;&#9;&#9;&#9;c0.2-0.2,0.4-0.2,0.7-0.2h14.3c0.3,0,0.6,0.1,0.7,0.3c0.2,0.2,0.3,0.4,0.3,0.7c0,0.7-0.3,1-1,1h-12.2l1.9,2.1&#10;&#9;&#9;&#9;c0.2,0.2,0.3,0.5,0.3,0.7s-0.1,0.4-0.3,0.6c-0.2,0.2-0.4,0.3-0.6,0.3c-0.3,0-0.5-0.1-0.7-0.4l-3.2-3.2c-0.2-0.2-0.3-0.4-0.4-0.6&#10;&#9;&#9;&#9;C358.9,235.5,358.8,235.3,358.8,235z M375.1,227.5c0,0.3-0.1,0.6-0.2,0.8c-0.2,0.2-0.4,0.3-0.8,0.3c-1.3,0-2.4-0.3-3.3-0.8&#10;&#9;&#9;&#9;s-1.6-1.1-2-1.8s-1-1.5-1.7-2.6c-0.7-1.2-1.1-2-1.4-2.4c-0.3-0.5-0.7-0.9-1-1.1c-0.4-0.3-0.8-0.4-1.4-0.4s-1.1,0.1-1.5,0.2&#10;&#9;&#9;&#9;c-0.4,0.1-0.6,0.4-0.7,0.7s-0.2,0.8-0.2,1.5v2.6c0,0.8,0.1,1.3,0.3,1.7c0.2,0.4,0.6,0.6,1.1,0.7c0.3,0.1,0.6,0.2,0.7,0.3&#10;&#9;&#9;&#9;s0.2,0.4,0.2,0.7s-0.1,0.6-0.3,0.8c-0.2,0.2-0.5,0.2-0.8,0.2c-1.1-0.2-2-0.6-2.5-1.3c-0.6-0.7-0.8-1.7-0.8-3V222&#10;&#9;&#9;&#9;c0-1.5,0.4-2.6,1.1-3.3s1.8-1.1,3.3-1.1c0.9,0,1.7,0.2,2.3,0.7c0.6,0.4,1.2,1,1.6,1.6s1,1.6,1.7,2.8c0.5,0.9,1,1.6,1.3,2.1&#10;&#9;&#9;&#9;c0.3,0.4,0.7,0.9,1.2,1.2c0.5,0.4,1.1,0.6,1.8,0.7v-7.9c0-0.3,0.1-0.6,0.3-0.7c0.2-0.2,0.4-0.3,0.7-0.3s0.6,0.1,0.7,0.3&#10;&#9;&#9;&#9;c0.2,0.2,0.3,0.4,0.3,0.7L375.1,227.5L375.1,227.5z M375.1,189c0,1.4-0.3,2.5-0.9,3.3s-1.5,1.2-2.7,1.4c-0.3,0-0.6,0-0.8-0.2&#10;&#9;&#9;&#9;c-0.2-0.2-0.3-0.4-0.3-0.8c0-0.6,0.3-1,1-1c0.6-0.1,1.1-0.4,1.3-0.7c0.2-0.4,0.3-1,0.3-1.9v-2.7c0-0.7-0.1-1.2-0.2-1.6&#10;&#9;&#9;&#9;c-0.2-0.4-0.4-0.7-0.8-0.8c-0.4-0.2-0.9-0.2-1.6-0.2s-1.2,0.1-1.6,0.2c-0.4,0.2-0.7,0.4-0.8,0.8c-0.2,0.4-0.2,0.9-0.2,1.6v1.8&#10;&#9;&#9;&#9;c0,0.7-0.3,1-1,1c-0.3,0-0.6-0.1-0.7-0.3s-0.3-0.4-0.3-0.7v-2.8c0-0.5-0.2-0.8-0.6-1s-1.1-0.3-1.9-0.3c-0.6,0-1.1,0.1-1.5,0.2&#10;&#9;&#9;&#9;c-0.4,0.1-0.6,0.4-0.7,0.7s-0.2,0.8-0.2,1.5v2.3c0,0.8,0.1,1.3,0.3,1.7s0.6,0.6,1.1,0.7c0.7,0.1,1,0.4,1,1.1&#10;&#9;&#9;&#9;c0,0.3-0.1,0.6-0.3,0.8c-0.2,0.2-0.5,0.2-0.8,0.2c-2.2-0.3-3.4-1.8-3.4-4.4v-2.3c0-1.5,0.4-2.6,1.1-3.3s1.8-1.1,3.3-1.1&#10;&#9;&#9;&#9;s2.5,0.4,3.1,1.2c0.7-1.1,2-1.6,4-1.6c1.6,0,2.8,0.4,3.5,1.2c0.8,0.8,1.1,1.9,1.1,3.5v2.5L375.1,189L375.1,189z M369.7,164.7&#10;&#9;&#9;&#9;c0-0.3,0.1-0.6,0.3-0.7c0.2-0.2,0.4-0.3,0.7-0.3c0.3,0,0.6,0.1,0.7,0.3s0.3,0.4,0.3,0.7v1.4h2.4c0.7,0,1,0.3,1,1&#10;&#9;&#9;&#9;c0,0.3-0.1,0.6-0.3,0.7c-0.2,0.2-0.4,0.3-0.7,0.3h-2.4v7.4c0,0.3-0.1,0.6-0.3,0.7s-0.4,0.3-0.7,0.3c-0.3,0-0.7-0.1-1.1-0.4&#10;&#9;&#9;&#9;l-10.2-7.5c-0.3-0.2-0.4-0.4-0.5-0.6c-0.1-0.2-0.1-0.5-0.1-0.8c0-0.7,0.3-1.1,1-1.1h9.8v-1.4L369.7,164.7L369.7,164.7z M369.7,174&#10;&#9;&#9;&#9;v-5.9h-8L369.7,174z M375.1,153.9c0,1.4-0.3,2.5-0.9,3.3s-1.5,1.2-2.7,1.4c-0.3,0-0.6,0-0.8-0.2c-0.2-0.2-0.3-0.4-0.3-0.8&#10;&#9;&#9;&#9;c0-0.6,0.3-1,1-1c0.6-0.1,1.1-0.4,1.3-0.7c0.2-0.4,0.4-1,0.4-1.9v-2.5c0-0.7-0.1-1.2-0.2-1.6c-0.2-0.4-0.4-0.7-0.8-0.8&#10;&#9;&#9;&#9;c-0.4-0.2-0.9-0.2-1.6-0.2h-1.7c-0.7,0-1.2,0.1-1.6,0.2c-0.4,0.2-0.7,0.4-0.8,0.8c-0.2,0.4-0.2,0.9-0.2,1.6v1.8&#10;&#9;&#9;&#9;c0,1.2,0.1,2,0.4,2.6c0.1,0.2,0.2,0.3,0.3,0.5c0.1,0.2,0.1,0.3,0.1,0.5c0,0.1,0,0.2-0.1,0.4l-0.1,0.2c-0.2,0.6-0.5,0.8-1.1,0.8&#10;&#9;&#9;&#9;h-5.8c-0.3,0-0.6-0.1-0.7-0.3c-0.2-0.2-0.3-0.4-0.3-0.7v-9.4c0-0.3,0.1-0.6,0.3-0.7c0.2-0.1,0.4-0.3,0.7-0.3&#10;&#9;&#9;&#9;c0.3,0,0.6,0.1,0.7,0.3s0.3,0.4,0.3,0.7v8.4h3.7c-0.3-0.8-0.4-1.8-0.4-3v-1.8c0-1.6,0.4-2.8,1.2-3.5c0.8-0.8,1.9-1.2,3.5-1.2h1.7&#10;&#9;&#9;&#9;c1.6,0,2.8,0.4,3.5,1.2c0.8,0.8,1.2,1.9,1.2,3.5v2.4L375.1,153.9L375.1,153.9z M375.1,135.9c0,1.6-0.4,2.8-1.1,3.6&#10;&#9;&#9;&#9;c-0.8,0.8-1.9,1.1-3.5,1.1h-7.2c-1.5,0-2.6-0.4-3.3-1.1c-0.7-0.7-1.1-1.9-1.1-3.4v-3c0-2.6,1.1-4.1,3.4-4.4c0.3,0,0.6,0,0.8,0.2&#10;&#9;&#9;&#9;c0.2,0.2,0.3,0.4,0.3,0.8c0,0.6-0.3,1-1,1.1c-0.5,0.1-0.9,0.3-1.1,0.7s-0.3,0.9-0.3,1.7v3c0,0.6,0.1,1.1,0.2,1.5&#10;&#9;&#9;&#9;c0.1,0.3,0.4,0.6,0.7,0.7c0.3,0.1,0.8,0.2,1.5,0.2h2c-0.8-0.6-1.1-1.5-1.1-2.7v-2.5c0-1.6,0.4-2.8,1.2-3.5&#10;&#9;&#9;&#9;c0.8-0.8,1.9-1.2,3.5-1.2h1.6c1.6,0,2.8,0.4,3.6,1.2c0.8,0.8,1.1,1.9,1.1,3.5v2.5L375.1,135.9L375.1,135.9z M373.1,133.4&#10;&#9;&#9;&#9;c0-0.7-0.1-1.2-0.2-1.6c-0.2-0.4-0.4-0.7-0.8-0.8c-0.4-0.2-0.9-0.2-1.6-0.2h-1.6c-0.7,0-1.2,0.1-1.6,0.2c-0.4,0.2-0.7,0.4-0.8,0.8&#10;&#9;&#9;&#9;c-0.1,0.4-0.2,0.9-0.2,1.6v2.5c0,0.7,0.1,1.2,0.2,1.6c0.2,0.4,0.4,0.6,0.8,0.8s0.9,0.2,1.6,0.2h1.7c0.7,0,1.2-0.1,1.6-0.2&#10;&#9;&#9;&#9;c0.4-0.2,0.6-0.4,0.8-0.8c0.2-0.4,0.2-0.9,0.2-1.6v-2.5H373.1z" id="el_IlWO-3lEE5_"/>
	</g>
	<g id="el_sy_kFUtyyuD">
		<path d="M385.9,441.9c0-0.1,0-0.2,0.1-0.3c0.1-0.1,0.2-0.1,0.4-0.1h7.1c0.2,0,0.3,0,0.4,0.1s0.1,0.2,0.1,0.4&#10;&#9;&#9;&#9;c0,0.3-0.2,0.5-0.5,0.5h-6.1l1,1c0.1,0.1,0.2,0.2,0.2,0.4c0,0.1,0,0.2-0.1,0.3c-0.1,0.1-0.2,0.1-0.3,0.1c-0.1,0-0.3-0.1-0.4-0.2&#10;&#9;&#9;&#9;l-1.6-1.6c-0.1-0.1-0.2-0.2-0.2-0.3C385.9,442.1,385.9,442,385.9,441.9z M394,438.1c0,0.2,0,0.3-0.1,0.4s-0.2,0.1-0.4,0.1&#10;&#9;&#9;&#9;c-0.7,0-1.2-0.1-1.6-0.4s-0.8-0.6-1-0.9s-0.5-0.8-0.8-1.3c-0.3-0.6-0.6-1-0.7-1.2c-0.2-0.2-0.3-0.4-0.5-0.6&#10;&#9;&#9;&#9;c-0.2-0.1-0.4-0.2-0.7-0.2c-0.3,0-0.6,0-0.7,0.1c-0.2,0.1-0.3,0.2-0.4,0.4c-0.1,0.2-0.1,0.4-0.1,0.7v1.3c0,0.4,0.1,0.7,0.2,0.8&#10;&#9;&#9;&#9;c0.1,0.2,0.3,0.3,0.6,0.3c0.2,0,0.3,0.1,0.4,0.2s0.1,0.2,0.1,0.4c0,0.2,0,0.3-0.1,0.4s-0.2,0.1-0.4,0.1c-0.6-0.1-1-0.3-1.3-0.7&#10;&#9;&#9;&#9;c-0.3-0.4-0.4-0.9-0.4-1.5v-1.3c0-0.8,0.2-1.3,0.6-1.7c0.4-0.4,0.9-0.6,1.7-0.6c0.4,0,0.8,0.1,1.2,0.3c0.3,0.2,0.6,0.5,0.8,0.8&#10;&#9;&#9;&#9;c0.2,0.3,0.5,0.8,0.8,1.4c0.3,0.5,0.5,0.8,0.6,1c0.2,0.2,0.4,0.4,0.6,0.6s0.5,0.3,0.9,0.4v-4c0-0.2,0-0.3,0.1-0.4s0.2-0.1,0.4-0.1&#10;&#9;&#9;&#9;s0.3,0,0.4,0.1s0.1,0.2,0.1,0.4v4.7L394,438.1L394,438.1z M394,428.6c0,0.7-0.1,1.2-0.4,1.6s-0.7,0.6-1.4,0.7&#10;&#9;&#9;&#9;c-0.2,0-0.3,0-0.4-0.1s-0.1-0.2-0.1-0.4c0-0.3,0.2-0.5,0.5-0.5c0.3-0.1,0.5-0.2,0.6-0.4c0.1-0.2,0.2-0.5,0.2-0.9v-1.4&#10;&#9;&#9;&#9;c0-0.4,0-0.6-0.1-0.8c-0.1-0.2-0.2-0.3-0.4-0.4c-0.2-0.1-0.5-0.1-0.8-0.1s-0.6,0-0.8,0.1c-0.2,0.1-0.3,0.2-0.4,0.4&#10;&#9;&#9;&#9;c-0.1,0.2-0.1,0.5-0.1,0.8v0.9c0,0.3-0.2,0.5-0.5,0.5c-0.2,0-0.3,0-0.4-0.1s-0.1-0.2-0.1-0.4v-1.4c0-0.2-0.1-0.4-0.3-0.5&#10;&#9;&#9;&#9;c-0.2-0.1-0.5-0.2-0.9-0.2c-0.3,0-0.6,0-0.7,0.1c-0.2,0.1-0.3,0.2-0.4,0.4c-0.1,0.2-0.1,0.4-0.1,0.7v1.2c0,0.4,0.1,0.7,0.2,0.8&#10;&#9;&#9;&#9;s0.3,0.3,0.6,0.3c0.3,0,0.5,0.2,0.5,0.5c0,0.2,0,0.3-0.1,0.4s-0.2,0.1-0.4,0.1c-1.1-0.2-1.7-0.9-1.7-2.2v-1.2&#10;&#9;&#9;&#9;c0-0.8,0.2-1.3,0.6-1.7c0.4-0.4,0.9-0.6,1.7-0.6c0.7,0,1.3,0.2,1.6,0.6c0.4-0.5,1-0.8,2-0.8c0.8,0,1.4,0.2,1.8,0.6s0.6,1,0.6,1.8&#10;&#9;&#9;&#9;v1.6H394z M391.3,416.4c0-0.2,0-0.3,0.1-0.4s0.2-0.1,0.4-0.1c0.2,0,0.3,0,0.4,0.1s0.1,0.2,0.1,0.4v0.7h1.2c0.3,0,0.5,0.2,0.5,0.5&#10;&#9;&#9;&#9;c0,0.2,0,0.3-0.1,0.4s-0.2,0.1-0.4,0.1h-1.2v3.7c0,0.2,0,0.3-0.1,0.4s-0.2,0.1-0.4,0.1s-0.3-0.1-0.5-0.2l-5.1-3.8&#10;&#9;&#9;&#9;c-0.1-0.1-0.2-0.2-0.3-0.3c0-0.1-0.1-0.2-0.1-0.4c0-0.4,0.2-0.6,0.5-0.6h4.9v-0.6L391.3,416.4L391.3,416.4z M391.3,421v-3h-4&#10;&#9;&#9;&#9;L391.3,421z" id="el_VMhzDBHg1zr"/>
	</g>
	<g id="el_GOGeXR_khxL">
		<path d="M404.9,220.5c0,1.1-0.3,1.9-0.8,2.4s-1.3,0.8-2.4,0.8h-3.2c-1.1,0-1.9-0.3-2.4-0.8s-0.8-1.3-0.7-2.4v-0.8&#10;&#9;&#9;&#9;c0-1.1,0.3-1.9,0.8-2.4s1.3-0.8,2.4-0.8h3.2c1.1,0,1.9,0.3,2.4,0.8s0.8,1.3,0.8,2.4L404.9,220.5L404.9,220.5z M403.7,219.7&#10;&#9;&#9;&#9;c0-0.5-0.1-0.9-0.2-1.2s-0.3-0.5-0.6-0.6c-0.3-0.1-0.7-0.2-1.2-0.2h-3.2c-0.5,0-0.9,0.1-1.2,0.2c-0.3,0.1-0.5,0.3-0.6,0.6&#10;&#9;&#9;&#9;s-0.2,0.7-0.2,1.2v0.8c0,0.5,0,0.9,0.2,1.2c0.1,0.3,0.3,0.5,0.6,0.6c0.3,0.1,0.7,0.2,1.2,0.2h3.2c0.5,0,0.9-0.1,1.2-0.2&#10;&#9;&#9;&#9;s0.5-0.3,0.6-0.6s0.2-0.7,0.2-1.2V219.7z M400.8,220.4c0,0.2,0,0.3-0.1,0.4c-0.1,0.1-0.2,0.1-0.4,0.1H400c-0.2,0-0.3,0-0.4-0.1&#10;&#9;&#9;&#9;s-0.1-0.2-0.1-0.4v-0.3c0-0.4,0.2-0.5,0.5-0.5h0.3c0.2,0,0.3,0,0.4,0.1s0.1,0.2,0.1,0.4V220.4z M395.4,210.8&#10;&#9;&#9;&#9;c0-0.2,0.1-0.3,0.2-0.4c0.1-0.1,0.2-0.1,0.4-0.1h8.3c0.2,0,0.3,0.1,0.4,0.2c0.1,0.1,0.2,0.2,0.2,0.4c0,0.4-0.2,0.6-0.6,0.6h-7.1&#10;&#9;&#9;&#9;l1.1,1.2c0.1,0.1,0.2,0.3,0.2,0.4c0,0.1-0.1,0.2-0.2,0.3s-0.2,0.2-0.4,0.2c-0.1,0-0.3-0.1-0.4-0.2l-1.8-1.9&#10;&#9;&#9;&#9;c-0.1-0.1-0.2-0.2-0.2-0.3S395.4,211,395.4,210.8z M407.1,206.7c0,0.2-0.1,0.3-0.2,0.4c-0.1,0.1-0.2,0.2-0.4,0.2c0,0-0.1,0-0.2,0&#10;&#9;&#9;&#9;l-11.1-2.9c-0.2,0-0.3-0.1-0.4-0.2c-0.1-0.1-0.1-0.2-0.1-0.4s0.1-0.3,0.2-0.4c0.1-0.1,0.2-0.2,0.4-0.2c0.1,0,0.1,0,0.2,0l11.1,2.9&#10;&#9;&#9;&#9;C406.9,206.2,407.1,206.4,407.1,206.7z M395.4,199c0-0.2,0.1-0.3,0.2-0.4c0.1-0.1,0.2-0.1,0.4-0.1h8.3c0.2,0,0.3,0.1,0.4,0.2&#10;&#9;&#9;&#9;s0.2,0.2,0.2,0.4c0,0.4-0.2,0.6-0.6,0.6h-7.1l1.1,1.2c0.1,0.1,0.2,0.3,0.2,0.4c0,0.1-0.1,0.2-0.2,0.3s-0.2,0.2-0.4,0.2&#10;&#9;&#9;&#9;c-0.1,0-0.3-0.1-0.4-0.2l-1.8-1.9c-0.1-0.1-0.2-0.2-0.2-0.3S395.4,199.2,395.4,199z M395.4,190.6c0-0.9,0.2-1.6,0.7-2.1&#10;&#9;&#9;&#9;c0.4-0.4,1.1-0.7,2-0.7h4.2c0.9,0,1.5,0.2,2,0.6c0.4,0.4,0.6,1.1,0.6,1.9v1.7c0,1.5-0.7,2.4-2,2.5c-0.2,0-0.3,0-0.4-0.1&#10;&#9;&#9;&#9;s-0.2-0.3-0.2-0.4c0-0.4,0.2-0.6,0.6-0.6c0.3-0.1,0.5-0.2,0.6-0.4s0.2-0.5,0.2-1v-1.7c0-0.4,0-0.7-0.1-0.9s-0.2-0.3-0.4-0.4&#10;&#9;&#9;&#9;c-0.2-0.1-0.5-0.1-0.9-0.1h-1.2c0.4,0.4,0.7,0.9,0.7,1.6v1.5c0,0.9-0.2,1.6-0.7,2.1s-1.1,0.7-2.1,0.7h-0.9c-0.9,0-1.6-0.2-2.1-0.7&#10;&#9;&#9;&#9;c-0.4-0.4-0.7-1.1-0.7-2.1L395.4,190.6L395.4,190.6z M396.6,192.1c0,0.4,0,0.7,0.1,1c0.1,0.2,0.3,0.4,0.5,0.5s0.5,0.1,0.9,0.1h0.9&#10;&#9;&#9;&#9;c0.4,0,0.7,0,1-0.1c0.2-0.1,0.4-0.3,0.5-0.5s0.1-0.5,0.1-0.9v-1.5c0-0.4,0-0.7-0.1-0.9s-0.2-0.4-0.5-0.5c-0.2-0.1-0.5-0.1-0.9-0.1&#10;&#9;&#9;&#9;h-1c-0.4,0-0.7,0-0.9,0.1c-0.2,0.1-0.4,0.3-0.5,0.5s-0.1,0.5-0.1,0.9V192.1z" id="el_CAeRX6KNEk9"/>
	</g>
	<ellipse cx="408.7" cy="137.9" rx="16.6" ry="15" id="el_--QKNt0U6rO"/>
	<ellipse cx="408.7" cy="119.9" rx="16.6" ry="15" id="el_vFcuRkNwYcY"/>
	<path d="M309.5,393.5L309.5,393.5l-1.7-1.1v-0.1c1.6-2.7,4.7-4.4,8.2-4.4c3.1,0,5.9,1.4,7.6,3.6l-0.8,0.6l-0.9,0.6&#10;&#9;&#9;c-1.3-1.6-3.5-2.8-6-2.8C313.2,389.9,310.8,391.4,309.5,393.5L309.5,393.5z" id="el_a2p_hz9fvY2"/>
	<path d="M305.2,392l-1-0.8L305.2,392L305.2,392z M305.9,391.1L305.9,391.1l-1.7-1.1l0,0c2.4-3.7,6.8-6.1,11.8-6.1&#10;&#9;&#9;c4.6,0,8.7,2,11.2,5.2L326,390l-0.4,0.3c-2.1-2.7-5.6-4.4-9.6-4.4C311.7,385.9,307.9,388,305.9,391.1z" id="el_u0Dv1H2VN9o"/>
	<path d="M316,381.9c-5.9,0-11,2.8-13.8,6.9l-0.6-0.4l-1.1-0.7c3.2-4.7,9-7.8,15.5-7.8c6.1,0,11.5,2.7,14.8,6.9&#10;&#9;&#9;l-1.4,1.1l-0.2,0.1C326.3,384.3,321.5,381.9,316,381.9z" id="el_JYvXbjRB242"/>
	<g id="el_bowgGSIh6KI">
		<g id="el_WGTv-d8nw_6">
			<g id="el_OYthOG9UBMi">
				<defs>
					<rect id="SVGID_1_" x="213.6" y="114.9" width="24.4" height="149"/>
				</defs>
				<clipPath id="SVGID_20_">
					<use xlink:href="#SVGID_1_" style="overflow:visible;"/>
				</clipPath>
				<g id="el_1Pn7IyQSYHq">
					<path d="M218,249.5l-4.4,1.6v12.8l18-6.8l0,0v-12.7l0,0l-13.6-5.1V249.5L218,249.5z M216.1,260.3v-7.4l2.2-0.8&#10;&#9;&#9;&#9;&#9;&#9;&#9;l9.7,3.7L216.1,260.3z M229.1,253.4l-7.2-2.7l7.2-2.7V253.4z M228,245.7l-7.6,2.9v-5.7L228,245.7z" id="el_wm6rfIkyrqR"/>
					<path d="M219.8,201.5c-0.6,1-0.9,2.1-0.9,3.3c0,1.6,0.6,3.1,1.7,4.3c1.3,1.4,2.9,2.1,4.8,2.1&#10;&#9;&#9;&#9;&#9;&#9;&#9;c1.8,0,3.3-0.6,4.6-1.9c1.3-1.3,1.9-2.8,1.9-4.6c0-1.2-0.3-2.3-0.9-3.3s-1.4-1.8-2.4-2.4c-1-0.6-2.1-0.9-3.3-0.9&#10;&#9;&#9;&#9;&#9;&#9;&#9;s-2.2,0.3-3.2,0.9C221.2,199.7,220.4,200.5,219.8,201.5z M228,202.3c0.7,0.6,1,1.5,1,2.4c0,1-0.3,1.8-1,2.4&#10;&#9;&#9;&#9;&#9;&#9;&#9;c-0.7,0.6-1.5,1-2.6,1c-1,0-1.9-0.3-2.6-1c-0.7-0.6-1-1.5-1-2.4c0-1,0.3-1.8,1-2.4c0.7-0.6,1.5-1,2.6-1&#10;&#9;&#9;&#9;&#9;&#9;&#9;C226.5,201.4,227.4,201.7,228,202.3z" id="el_yaPiSC01dQc"/>
					<path d="M219,176.5c0,1.8,0.6,3.4,1.9,4.6c1.2,1.2,2.8,1.8,4.7,1.8c1.8,0,3.4-0.6,4.6-1.8&#10;&#9;&#9;&#9;&#9;&#9;&#9;c1.2-1.2,1.8-2.8,1.8-4.8c0-1.3-0.2-2.3-0.7-3.3c-0.4-0.9-1.1-1.7-2-2.4l-1.2,2.6c0.8,0.8,1.2,1.8,1.2,3c0,1-0.3,1.8-0.8,2.4&#10;&#9;&#9;&#9;&#9;&#9;&#9;c-0.5,0.6-1.2,1-2.1,1.2v-10h-0.6c-2,0-3.7,0.6-4.9,1.8C219.6,172.9,219,174.5,219,176.5z M223.9,179.8&#10;&#9;&#9;&#9;&#9;&#9;&#9;c-0.8-0.4-1.3-0.7-1.6-1.1c-0.5-0.7-0.7-1.4-0.7-2.3c0-0.8,0.2-1.5,0.6-2.1c0.4-0.6,1-1,1.7-1.2V179.8z" id="el_HUGDt0Sv2Ps"/>
					<path d="M219.3,145.6l7.3,3.1l-7.3,3.1v3.2l12.3-5.3v-2l-12.3-5.3V145.6z" id="el_6YaMfS28e5z"/>
					<path d="M219,136c0,1.8,0.6,3.4,1.9,4.6c1.2,1.2,2.8,1.8,4.7,1.8c1.8,0,3.4-0.6,4.6-1.8c1.2-1.2,1.8-2.8,1.8-4.8&#10;&#9;&#9;&#9;&#9;&#9;&#9;c0-1.3-0.2-2.3-0.7-3.3c-0.4-0.9-1.1-1.7-2-2.4l-1.2,2.6c0.8,0.8,1.2,1.8,1.2,3c0,1-0.3,1.8-0.8,2.4c-0.5,0.6-1.2,1-2.1,1.2&#10;&#9;&#9;&#9;&#9;&#9;&#9;v-10h-0.6c-2,0-3.7,0.6-4.9,1.8C219.6,132.4,219,134,219,136z M223.9,139.3c-0.8-0.4-1.3-0.7-1.6-1.1c-0.5-0.7-0.7-1.4-0.7-2.3&#10;&#9;&#9;&#9;&#9;&#9;&#9;c0-0.8,0.2-1.5,0.6-2.1c0.4-0.6,1-1,1.7-1.2V139.3z" id="el_m0_KI6gS7bN"/>
					<path d="M222.2,115.8c-1,0.6-1.8,1.4-2.4,2.4c-0.6,1-0.9,2.1-0.9,3.3c0,1.6,0.6,3.1,1.7,4.3&#10;&#9;&#9;&#9;&#9;&#9;&#9;c1.3,1.4,2.9,2.1,4.8,2.1c1.8,0,3.3-0.6,4.6-1.9s1.9-2.8,1.9-4.6c0-1.2-0.3-2.3-0.9-3.3c-0.6-1-1.4-1.8-2.4-2.4&#10;&#9;&#9;&#9;&#9;&#9;&#9;s-2.1-0.9-3.3-0.9C224.3,114.9,223.2,115.2,222.2,115.8z M228,119c0.7,0.6,1,1.5,1,2.4c0,1-0.3,1.8-1,2.4c-0.7,0.6-1.5,1-2.6,1&#10;&#9;&#9;&#9;&#9;&#9;&#9;c-1,0-1.9-0.3-2.6-1c-0.7-0.6-1-1.5-1-2.4c0-1,0.3-1.8,1-2.4c0.7-0.6,1.5-1,2.6-1S227.4,118.4,228,119z" id="el_E7lLeIIPUtY"/>
					<path d="M219,190.6c0,3.4,2.8,6.2,6.2,6.2h6.4v-3h-6.4c-1.7,0-3.1-1.4-3.1-3.2s1.4-3.2,3.1-3.2h6.4v-3h-6.4&#10;&#9;&#9;&#9;&#9;&#9;&#9;C221.8,184.3,219,187.1,219,190.6z" id="el_0dkDGo3wm4i"/>
					<path d="M219,218.9c0,1.9,0.8,3.6,2.2,4.7c-1.3,1.1-2.2,2.8-2.2,4.7c0,3.4,2.8,6.2,6.2,6.2h6.4v-3h-6.4&#10;&#9;&#9;&#9;&#9;&#9;&#9;c-1.7,0-3.1-1.4-3.1-3.2s1.4-3.2,3.1-3.2h6.4V225v-3v-0.1h-6.4c-1.7,0-3.1-1.4-3.1-3.2s1.4-3.2,3.1-3.2h6.4v-3h-6.4&#10;&#9;&#9;&#9;&#9;&#9;&#9;C221.8,212.7,219,215.5,219,218.9z" id="el_JNbgjLhehkt"/>
					<path d="M221.7,159.1h4c1.7,0,3.1,1.4,3.1,3.2s-1.4,3.2-3.1,3.2h-6.4v3h6.4c3.4,0,6.2-2.8,6.2-6.2&#10;&#9;&#9;&#9;&#9;&#9;&#9;c0-1.2-0.3-2.2-0.9-3.2h0.8c1.7,0,3.1,1.4,3.1,3.2h3c0-3.4-2.7-6.2-6.1-6.2l0,0h-6.2h-4h-2.4v3H221.7z" id="el_cDfqYGhA83k"/>
				</g>
			</g>
		</g>
	</g>
</g></g></g></g>
<path d="M194.6,194.5c-55.7,15.2-92,40.2-92,68.3c0,46.4,98.5,84,220,84s220-37.6,220-84c0-30.1-41.6-56.6-104-71.4" id="el_C0vx1S8BYwr"/>
<path d="M512.6,123.9c0,9.7-5.1,19.1-14.7,27.7c-9.5,8.6-23.4,16.4-40.6,23c-34.4,13.2-82,21.3-134.7,21.3&#10;&#9;s-100.3-8.2-134.7-21.3c-17.2-6.6-31.1-14.4-40.6-23c-9.6-8.6-14.7-18-14.7-27.7s5.1-19.1,14.7-27.7c9.5-8.6,23.4-16.4,40.6-23&#10;&#9;c34.4-13.1,82-21.3,134.7-21.3s100.3,8.2,134.7,21.3c17.2,6.6,31.1,14.4,40.6,23C507.5,104.8,512.6,114.2,512.6,123.9z" id="el_86MpAgkz8Ky"/>
</svg>