<?xml version="1.0" standalone="no"?>
<!DOCTYPE svg PUBLIC "-//W3C//DTD SVG 20010904//EN"
 "http://www.w3.org/TR/2001/REC-SVG-20010904/DTD/svg10.dtd">
<svg version="1.0" xmlns="http://www.w3.org/2000/svg"
 width="151.000000pt" height="151.000000pt" viewBox="0 0 151.000000 151.000000"
 preserveAspectRatio="xMidYMid meet">
<metadata>
Created by potrace 1.11, written by Peter Selinger 2001-2013
</metadata>
<g transform="translate(0.000000,151.000000) scale(0.100000,-0.100000)"
fill="#000000" stroke="none">
<path d="M10 1489 c0 -5 5 -7 10 -4 6 3 10 8 10 11 0 2 -4 4 -10 4 -5 0 -10
-5 -10 -11z"/>
<path d="M52 1458 c-7 -7 -11 -34 -10 -62 1 -48 2 -48 5 -11 7 60 15 65 112
66 79 2 82 2 36 9 -76 12 -130 11 -143 -2z"/>
<path d="M1125 1409 c-49 -6 -49 -6 18 -7 38 -1 78 -7 90 -13 16 -9 19 -9 11
0 -17 19 -66 27 -119 20z"/>
<path d="M403 1403 c9 -2 25 -2 35 0 9 3 1 5 -18 5 -19 0 -27 -2 -17 -5z"/>
<path d="M658 1403 c6 -2 18 -2 25 0 6 3 1 5 -13 5 -14 0 -19 -2 -12 -5z"/>
<path d="M868 1403 c7 -3 16 -2 19 1 4 3 -2 6 -13 5 -11 0 -14 -3 -6 -6z"/>
<path d="M473 1389 c14 -8 22 -8 30 0 8 8 3 11 -18 11 -26 -1 -28 -2 -12 -11z"/>
<path d="M915 1390 c4 -6 11 -8 16 -5 14 9 11 15 -7 15 -8 0 -12 -5 -9 -10z"/>
<path d="M1000 1361 c0 -5 10 -35 22 -66 14 -38 26 -55 36 -53 14 3 49 83 51
116 2 23 -19 12 -29 -15 -26 -70 -27 -71 -40 -20 -7 27 -18 47 -26 47 -8 0
-14 -4 -14 -9z"/>
<path d="M1146 1354 c-19 -18 -21 -85 -4 -102 17 -17 64 -15 83 4 21 21 13 29
-15 14 -26 -14 -50 -7 -50 15 0 11 11 15 40 15 32 0 40 4 40 18 0 43 -63 67
-94 36z m64 -30 c0 -8 -10 -14 -25 -14 -26 0 -35 25 -12 33 18 6 37 -3 37 -19z"/>
<path d="M1267 1352 c-21 -23 -22 -76 -1 -96 18 -19 65 -21 82 -4 17 17 15 84
-4 102 -21 21 -57 20 -77 -2z m68 -33 c8 -25 -13 -61 -33 -57 -21 4 -30 67
-11 79 17 10 37 1 44 -22z"/>
<path d="M250 1297 l5 -62 3 54 c2 30 0 58 -5 62 -4 4 -6 -20 -3 -54z"/>
<path d="M110 1336 c0 -2 7 -9 15 -16 12 -10 15 -10 15 4 0 9 -7 16 -15 16 -8
0 -15 -2 -15 -4z"/>
<path d="M170 1309 c0 -5 5 -7 10 -4 6 3 10 8 10 11 0 2 -4 4 -10 4 -5 0 -10
-5 -10 -11z"/>
<path d="M700 1165 c-19 -22 -8 -25 13 -3 9 10 13 18 8 18 -5 0 -14 -7 -21
-15z"/>
<path d="M745 1150 c-3 -5 1 -10 9 -10 8 0 18 5 21 10 3 6 -1 10 -9 10 -8 0
-18 -4 -21 -10z"/>
<path d="M784 1135 c-17 -13 -17 -14 -2 -15 9 0 21 -6 25 -14 4 -7 19 -17 33
-21 l25 -7 -25 27 c-14 16 -19 25 -12 21 6 -4 12 -5 12 -2 0 3 -8 10 -19 15
-13 7 -24 6 -37 -4z"/>
<path d="M395 1112 c-3 -17 -3 -47 1 -66 l6 -36 52 29 c28 17 51 35 51 42 0
16 -43 46 -77 54 -23 6 -27 3 -33 -23z"/>
<path d="M1043 1054 c-40 -20 -41 -33 -8 -64 14 -13 25 -28 25 -33 0 -17 98
-141 159 -202 34 -33 61 -63 61 -67 0 -13 -88 -9 -123 5 -18 8 -44 13 -59 13
-16 -1 -28 2 -28 6 0 4 10 8 23 8 33 0 67 11 67 21 0 22 -135 202 -168 225
-21 13 -60 31 -89 40 -45 13 -55 13 -87 0 -22 -9 -38 -24 -41 -38 -5 -21 -42
-55 -50 -46 -2 2 -6 18 -8 37 -9 54 -38 76 -101 75 -78 -2 -138 -34 -227 -121
-43 -42 -79 -80 -79 -84 0 -3 27 -17 60 -29 48 -18 75 -21 139 -19 71 4 81 7
99 30 11 14 39 34 61 44 23 10 41 22 41 27 0 4 4 8 9 8 15 0 90 -71 111 -105
16 -25 33 -35 82 -50 35 -9 69 -19 76 -21 20 -6 -14 -37 -44 -40 -13 -1 -31
-10 -40 -19 -9 -9 -23 -14 -30 -11 -7 3 -27 -2 -45 -11 -45 -23 -199 -12 -299
21 -41 13 -127 41 -190 61 -63 21 -117 40 -120 44 -3 3 -18 12 -33 19 -15 7
-25 17 -22 22 3 6 1 10 -4 10 -18 0 -13 -15 11 -36 21 -19 98 -56 203 -99 l40
-16 -24 -19 c-23 -16 -71 -30 -112 -30 -9 0 -33 11 -53 25 -36 24 -37 25 -31
4 6 -19 4 -21 -27 -15 l-33 7 25 -16 c14 -9 17 -14 8 -11 -10 3 -18 1 -18 -4
0 -6 6 -10 13 -10 8 0 8 -3 -2 -9 -10 -6 5 -11 45 -15 32 -4 74 -11 91 -17 18
-5 64 -13 103 -16 42 -4 75 -12 82 -20 6 -8 13 -54 14 -105 3 -86 20 -159 51
-221 13 -26 13 -31 -1 -46 -31 -34 -88 -42 -232 -35 -103 5 -141 4 -159 -6
-36 -19 -31 -26 23 -35 68 -10 935 -5 946 6 6 5 21 9 35 9 15 0 33 5 41 10 11
7 -1 10 -40 10 -51 1 -53 2 -31 14 22 12 14 14 -85 28 l-109 15 68 2 c61 1 75
5 123 37 51 34 104 87 104 103 0 14 -90 47 -193 72 -62 15 -97 28 -97 36 0 8
-7 16 -15 19 -30 12 -13 21 50 27 35 3 78 13 94 22 17 8 52 15 78 16 45 0 108
16 73 18 -13 1 -13 2 0 11 13 8 13 10 1 10 -11 0 -9 4 5 15 18 14 17 14 -15 8
-29 -5 -33 -4 -28 10 8 22 1 21 -30 -3 -34 -27 -102 -26 -156 2 l-42 21 145
24 c139 23 209 46 218 71 2 6 -44 61 -101 121 l-105 109 19 54 c10 29 18 65
19 81 0 25 -3 27 -37 27 -21 0 -53 -8 -70 -16z m-429 -109 c50 -46 19 -135
-47 -135 -72 0 -101 78 -48 131 36 35 60 37 95 4z m345 -41 c39 -50 23 -105
-35 -124 -32 -11 -39 -10 -63 7 -39 29 -41 85 -5 118 36 33 76 33 103 -1z
m-356 -341 c24 -46 26 -54 15 -80 -7 -15 -18 -34 -25 -41 -7 -7 -13 -18 -13
-23 0 -14 -48 -11 -57 4 -4 6 -9 23 -10 37 -2 14 -8 44 -15 68 -9 36 -16 44
-39 49 -32 6 -35 13 -17 31 8 8 35 12 73 10 l60 -3 28 -52z m42 22 c17 -12 49
-32 73 -44 26 -13 40 -26 36 -33 -5 -8 -1 -9 10 -5 12 5 16 3 14 -5 -3 -7 -15
-14 -27 -16 -34 -5 -161 98 -161 131 0 9 13 3 55 -28z m140 -149 c25 -11 33
-19 29 -30 -6 -15 6 -21 29 -17 5 1 6 -3 2 -9 -3 -5 -1 -10 4 -10 6 0 11 -13
11 -29 0 -33 -37 -77 -74 -87 -29 -7 -93 2 -100 15 -3 4 12 3 34 -2 32 -9 46
-8 76 6 25 12 34 22 30 33 -3 9 -7 23 -7 32 -1 9 -5 4 -9 -13 -7 -28 -8 -28
-9 12 -1 45 -15 63 -34 44 -9 -9 -8 -11 6 -6 14 6 17 2 17 -21 0 -16 -5 -36
-10 -44 -7 -12 -11 -10 -19 10 -7 18 -10 20 -10 8 -2 -35 -16 -17 -16 19 0 30
-4 38 -20 40 -15 1 -16 1 -2 -3 18 -6 21 -35 7 -69 -8 -21 -13 -15 -23 30 -3
15 -5 13 -6 -7 -1 -33 -10 -35 -41 -8 -46 40 7 113 88 119 7 1 28 -6 47 -13z
m-14 -252 c38 -20 69 -40 69 -45 0 -5 -40 -9 -90 -9 l-89 0 -10 38 c-6 20 -11
40 -11 45 0 19 69 4 131 -29z"/>
<path d="M554 879 c-8 -14 11 -33 25 -25 16 10 13 36 -3 36 -8 0 -18 -5 -22
-11z"/>
<path d="M537 839 c7 -7 15 -10 18 -7 3 3 -2 9 -12 12 -14 6 -15 5 -6 -5z"/>
<path d="M860 865 c-6 -8 -10 -19 -8 -24 1 -6 8 1 15 14 13 28 11 31 -7 10z"/>
<path d="M911 858 c11 -21 11 -22 -5 -9 -19 16 -30 8 -41 -26 -4 -15 -2 -23 5
-23 6 0 9 4 6 9 -3 5 6 9 21 9 25 0 26 -1 8 -14 -22 -16 -12 -19 16 -4 21 12
25 50 7 68 -20 20 -30 14 -17 -10z"/>
<path d="M669 410 l-24 -21 32 16 c36 17 99 20 108 5 4 -6 11 -7 17 -4 18 11
-15 24 -63 24 -33 0 -54 -6 -70 -20z"/>
<path d="M671 374 c0 -11 3 -14 6 -6 3 7 2 16 -1 19 -3 4 -6 -2 -5 -13z"/>
<path d="M681 826 c-10 -12 -8 -17 8 -25 28 -15 81 -14 81 2 0 35 -66 51 -89
23z"/>
<path d="M604 748 c-22 -35 140 -107 196 -86 14 5 33 7 42 4 10 -2 15 0 12 5
-3 5 1 12 9 15 8 3 14 13 12 22 -2 9 -4 20 -4 24 -2 14 -258 30 -267 16z"/>
<path d="M1460 40 l-35 -29 38 -1 c35 0 37 2 37 30 0 17 -1 30 -3 30 -1 0 -18
-13 -37 -30z"/>
<path d="M95 30 c-18 -20 -17 -20 20 -20 37 0 38 0 20 20 -10 11 -19 20 -20
20 -1 0 -10 -9 -20 -20z"/>
</g>
</svg>
